<?xml version="1.0" encoding="utf-8"?>
<!-- Generator: Adobe Illustrator 13.0.0, SVG Export Plug-In . SVG Version: 6.00 Build 14948)  -->
<!DOCTYPE svg PUBLIC "-//W3C//DTD SVG 1.1//EN" "http://www.w3.org/Graphics/SVG/1.1/DTD/svg11.dtd">
<svg version="1.1" id="Calque_1" xmlns="http://www.w3.org/2000/svg" xmlns:xlink="http://www.w3.org/1999/xlink" x="0px" y="0px"
	 width="1154.59px" height="467.243px" viewBox="0 0 1154.59 467.243" enable-background="new 0 0 1154.59 467.243"
	 xml:space="preserve">
<g>
	
		<linearGradient id="SVGID_1_" gradientUnits="userSpaceOnUse" x1="379.0803" y1="521.8687" x2="305.8537" y2="747.6259" gradientTransform="matrix(1 0 0 1 0.0752 -375.667)">
		<stop  offset="0" style="stop-color:#FFFFFF"/>
		<stop  offset="1" style="stop-color:#A0C7E7"/>
	</linearGradient>
	<path fill="url(#SVGID_1_)" d="M661.6,475.122V202.804l-1.23-0.78c-1.108-0.44-2.25-0.6-3.33-0.5l-0.657,0.11l0.147-0.27
		c1.892-5.91-1.97-12.43-8.601-14.54c-3.719-1.19-7.539-0.73-10.5,0.95l-0.359,0.22l-0.101-0.98
		c-1.239-5.8-6.159-10.83-12.899-12.43c-8.99-2.12-17.82,2.67-19.72,10.69l-0.07,0.35l-0.41-0.81c-1.29-1.64-3.25-2.86-5.59-3.27
		c-2.62-0.47-5.16,0.18-7.01,1.58l-0.14,0.12l-1.42-2.6c-0.923-1.12-2.143-2.05-3.57-2.68l-0.58-0.24l-0.07-0.28
		c-1.64-5.12-6.54-9.21-12.77-10.03c-8.302-1.1-15.83,4.03-16.812,11.44c-0.1,0.81-0.13,1.61-0.068,2.41l0.06,0.62l-2.34-0.04
		c-1.16,0.08-2.28,0.271-3.37,0.55l-1.38,0.42l-2.47-1.42c-2.312-1.07-4.87-1.75-7.602-1.95c-2.05-0.15-4.05-0.01-5.95,0.37
		l-1.13,0.28l0.09-0.31c0.19-4.9-4.1-9.04-9.568-9.25c-3.08-0.12-5.892,1.021-7.79,2.92l-0.29,0.33l-2.12-3.04
		c-2.05-1.97-4.93-3.26-8.16-3.38c-6.05-0.24-11.2,3.68-12,8.93l-0.03,0.29l-0.278-0.94c-0.78-1.54-2.19-2.86-4.03-3.56
		c-0.46-0.18-0.92-0.31-1.39-0.4l-0.57-0.07l-0.07-2.59c-0.55-2.4-2.04-4.7-4.318-6.31c-3.421-2.44-7.69-2.66-10.83-0.9l-1.36,0.96
		l-1.84-1.47c-0.49-0.33-1-0.63-1.5-0.92l-1.33-0.66l1.35-1.46c1.57-2.7,1.432-6.4-0.63-9.41c-1.028-1.5-2.398-2.63-3.898-3.3
		l-0.71-0.28l1.42-3.03c0.318-1.29,0.41-2.66,0.229-4.06l-0.06-0.31l1.85-1.85c4.78-5.85,5.84-14.75,2.05-22.71
		c-1.59-3.32-3.818-6.08-6.448-8.18l-0.58-0.43l0.39-1.22c1.312-5.81,0.47-12.36-2.82-18.28c-6.59-11.84-20.51-16.67-31.079-10.79
		l-0.25,0.17l0.579-0.99c3.08-6.98,0.512-15.89-6.568-21.17c-7.08-5.28-16.34-5.2-22.16-0.27l-0.851,0.81l-0.439-1.69
		c-1.391-2.87-3.92-5.35-7.28-6.74c-5.87-2.43-12.319-0.75-15.5,3.73l-0.76,1.37l-3.25-1.08c-1.3-0.31-2.601-0.5-3.9-0.601
		l-0.858-0.03l0.51-1.93c0.12-3.36-1.89-6.81-5.38-8.61c-3.48-1.811-7.46-1.47-10.13,0.569l-1.21,1.141l-2.63-1.28l-0.312-0.1
		l0.48-0.37c3.648-4.34,2.659-11.17-2.19-15.24c-4.859-4.09-11.76-3.87-15.399,0.46c-1.358,1.62-2.079,3.6-2.181,5.65v0.23
		l-1.42-0.83l0.54-0.541c0.62-0.979,1.05-2.08,1.21-3.29c0.63-4.79-3.22-9.25-8.59-9.97c-0.67-0.08-1.33-0.11-1.98-0.08l-0.028,0.01
		l-1.12-3.22c-3.75-7.8-13.312-12.16-23.091-9.95c-2.79,0.63-5.34,1.74-7.55,3.2l-0.88,0.64l-1.479-0.56
		c-5.689-1.56-12.221-1.03-18.229,1.96c-12.011,5.98-17.431,19.54-12.101,30.27c0.42,0.83,0.891,1.63,1.409,2.38l0.101,0.14
		l-1.17-0.24c-2.489-0.021-5.09,0.91-7.221,2.78c-3.72,3.28-4.739,8.37-2.699,12.13l0.761,1.09l-0.181,0.15
		c-2.351,2.65-3.959,5.67-4.841,8.78l-0.199,0.78l-0.831-1.38c-0.319-0.32-0.688-0.6-1.089-0.82l-0.74-0.28l0.08-1.65
		c-0.069-1.08-0.25-2.15-0.561-3.23c-2.51-8.54-12.311-13.2-21.88-10.4c-9.569,2.81-15.312,12.02-12.8,20.57
		c0.539,1.87,1.439,3.55,2.609,5.01l0.21,0.24l-2.53,1.21l-0.38-2.33c-1.729-4.28-7.021-6.18-11.819-4.25
		c-3.601,1.45-5.891,4.65-6.09,7.97l0.05,0.97l-3.24,1.66c-0.521,0.33-1.029,0.68-1.51,1.04l-0.729,0.6l-2.021-2.98
		c-2.74-2.58-7.109-3.43-11.2-1.83c-5.449,2.13-8.319,7.8-6.43,12.67c0.189,0.46,0.399,0.89,0.649,1.3l0.22,0.31l-3.479,1.9
		l-0.59,0.48l-0.05-0.2c-1.36-3.72-5.841-5.5-10.011-3.99c-4.159,1.52-6.439,5.77-5.08,9.49l0.36,0.75l-0.29-0.11l-0.881-0.24
		l-0.46-0.96c-1.67-2.69-5.319-3.89-8.779-2.71c-1.979,0.68-3.529,2.02-4.431,3.62l-0.159,0.37l-0.33,0.09
		c-1.841,0.61-3.569,1.42-5.141,2.38l-3.91,3.03l-0.649,0.03l-0.34-0.46c-1.859-2.05-5.029-2.92-8.12-1.98l-0.479,0.19l-0.391-0.86
		c-3.21-6.05-10.899-9.18-18.539-7.12c-3.28,0.87-6.091,2.58-8.211,4.78l-0.3,0.35l-0.261-0.12c-2.88-0.98-6.13-1.2-9.42-0.48
		c-6.04,1.33-10.63,5.49-12.359,10.5l-0.021,0.11l-1.58-1.38c-2.88-2.03-6.64-3.08-10.609-2.63c-1.99,0.22-3.851,0.79-5.5,1.63
		l-1.181,0.68l-0.239-0.28c-3.091-2.92-7.41-4.8-12.24-4.94c-9.061-0.26-16.699,5.68-17.819,13.54l-0.101,1.17l-0.779-0.04
		c-1.37-0.02-2.721,0.08-4.03,0.27L0,115.443v356.679l21.71-1c200.33,3.119,410.079,5.5,615.641,9L661.6,475.122z M500.6,188.454
		l-0.271-0.06v-0.58l-0.068-0.16l2.56,0.56l-0.02,0.04L500.6,188.454z M492.23,180.783l-0.49-0.01l0.11-0.18l0.11-0.729l0.158,0.62
		L492.23,180.783z"/>
	
		<linearGradient id="SVGID_2_" gradientUnits="userSpaceOnUse" x1="881.5081" y1="557.0854" x2="946.0253" y2="802.1216" gradientTransform="matrix(1 0 0 1 0.0752 -375.667)">
		<stop  offset="0" style="stop-color:#FFFFFF"/>
		<stop  offset="1" style="stop-color:#A0C7E7"/>
	</linearGradient>
	<path fill="url(#SVGID_2_)" d="M673.94,478.122c7.58,0.02,15.17,5.05,22.75,5c80.83-0.431,160.8,5.351,239.069-5
		c53.49-7.06,145.479,13.34,208.421,3l10.409-1V67.483l-2.852-1.51c-8.229-3.46-17.59-2.19-23.54,3.98
		c-0.858,0.9-1.63,1.87-2.278,2.88l-0.552,0.97l-1.31-0.89c-0.58-0.32-1.17-0.61-1.76-0.89l-1.74-0.7l0.938-1.72
		c1.711-4.23-0.027-9.5-4.397-12.51c-1.88-1.29-3.98-1.98-6.03-2.11l-1.51,0.04l0.79-2.28c1.93-8.69-3.091-18.27-12.48-22.67
		c-9.38-4.4-20.04-2.189-25.6,4.791l-0.63,0.9l-1.223-2.24c-2.617-3.86-7.27-6.56-12.709-6.86c-8.688-0.47-16.078,5.39-16.511,13.07
		c-0.067,1.26,0.05,2.49,0.34,3.67l0.2,0.67l-0.8,0.19l-0.62-2c-1.061-2.47-2.63-4.71-4.73-6.57c-8.407-7.42-22.05-5.87-30.447,3.46
		c-8.393,9.33-8.381,22.92,0.027,30.35c1.973,1.74,4.23,2.99,6.643,3.76l0.51,0.14l-1.13,2.46c-0.37,1.03-0.66,2.08-0.852,3.13
		l-0.209,2.06l-2.062,1.65l-0.5,0.07c-1.66,0.51-3.15,1.76-4.01,3.54c-0.38,0.8-0.602,1.62-0.66,2.43v0.25l-0.93,1.57
		c-0.643,1.35-1.143,2.72-1.512,4.11l-0.221,1.03l-0.09-0.06c-3.41-1.69-7.391-1.26-10.65,0.78l-1.33,1.01l-0.209-0.06
		c-8.021-1.39-16.949,2.26-22.438,9.95c-1.38,1.93-2.44,3.96-3.19,6.05l-0.05,0.18l-0.6,0.1c-4.37,1.18-8.143,3.6-10.74,6.86
		l-0.15,0.2l-1.949-2.51c-1.028-0.92-2.25-1.68-3.648-2.22c-4.16-1.61-8.63-0.75-11.41,1.86l-0.397,0.46l-0.263-2.16
		c-2.12-8.87-11.979-14.18-22.02-11.83c-10.04,2.34-16.48,11.46-14.36,20.34c0.521,2.18,1.51,4.15,2.86,5.84l1.01,1.11l-0.32,0.16
		l-1.868-0.12c-4.172,0.1-8.479,1.35-12.392,3.82c-1.31,0.83-2.51,1.75-3.59,2.75l-1.53,1.54l-0.27-0.44
		c-3.853-4.82-11.41-5.27-16.87-0.98c-5.46,4.28-6.75,11.67-2.9,16.5c0.37,0.45,0.761,0.86,1.183,1.24l0.857,0.64l-1.99,2.02
		c-0.578,0.7-1.078,1.43-1.527,2.19l-0.103,0.17l-2.26-1.58c-2.62-1.09-5.93-0.52-8.39,1.67c-1.23,1.1-2.07,2.45-2.5,3.86
		l-0.021,0.07l-1.1-0.2c-1.11,0.01-2.24,0.23-3.32,0.66l-1.45,0.73l-2.77-1.54c-5.92-2.49-13.45-1.27-19.063,3.66
		c-4.68,4.11-6.92,9.84-6.51,15.17l0.051,0.34l-2.931-0.46c-1.86,0.04-3.771,0.42-5.62,1.16l-1.99,1.01l-1.33-1.62
		c-5.118-5.12-12.987-7.9-21.35-6.79c-12.12,1.6-21.1,10.81-21.49,21.33l-0.01,0.76h-0.01c-5.393,0.42-9.46,4.63-9.08,9.39
		c0.068,0.9,0.29,1.75,0.64,2.54l0.103,0.18l-1.45,0.38l-0.562-1.68c-1.068-1.8-3.311-2.93-5.771-2.7
		c-3.08,0.29-5.41,2.59-5.47,5.26l0.02,0.33l-2.069,0.59l0.062-0.61c-0.34-2.36-2.271-4.17-4.71-4.71l-0.25-0.03l-0.221-1.99
		c-1.812-7.94-10.562-12.74-19.529-10.73c-8.979,2-14.79,10.08-12.971,18.01c0.398,1.74,1.131,3.33,2.108,4.72l0.131,0.17
		l-3.33,1.98l-1.021-3.04c-2.82-4.61-9.34-5.82-14.55-2.7l-0.342,0.25l-2.028-0.79c-2.09-0.6-4.21-0.91-6.29-0.93h-0.271l-0.25-1.25
		c-0.511-1.26-1.528-2.37-2.931-3.05c-2.44-1.18-5.239-0.63-6.71,1.18l-0.279,0.43l-0.811-0.2l0.27-0.39
		c0.92-2.25,0.16-4.81-1.709-6.52l-0.989-0.61v276.317L673.94,478.122z M1075.631,67.883l-0.61-0.16l0.91-0.87L1075.631,67.883z"/>
</g>
</svg>
