<?xml version="1.0" encoding="utf-8"?>
<!-- Generator: Adobe Illustrator 13.0.0, SVG Export Plug-In . SVG Version: 6.00 Build 14948)  -->
<!DOCTYPE svg PUBLIC "-//W3C//DTD SVG 1.1//EN" "http://www.w3.org/Graphics/SVG/1.1/DTD/svg11.dtd">
<svg version="1.1" id="Calque_1" xmlns="http://www.w3.org/2000/svg" xmlns:xlink="http://www.w3.org/1999/xlink" x="0px" y="0px"
	 width="1154.59px" height="332.161px" viewBox="0 0 1154.59 332.161" enable-background="new 0 0 1154.59 332.161"
	 xml:space="preserve">
<linearGradient id="SVGID_1_" gradientUnits="userSpaceOnUse" x1="588.5896" y1="448.644" x2="578.9547" y2="183.6869" gradientTransform="matrix(1 0 0 -1 0.0376 331.0957)">
	<stop  offset="0" style="stop-color:#FFFFFF"/>
	<stop  offset="1" style="stop-color:#90C160"/>
</linearGradient>
<path fill="url(#SVGID_1_)" d="M1154.59,85.271v246.89H0V56.041C414.301,145.661,613.42-132.149,1154.59,85.271z"/>
<linearGradient id="SVGID_2_" gradientUnits="userSpaceOnUse" x1="683.4451" y1="328.6978" x2="686.4962" y2="282.0497" gradientTransform="matrix(1 0 0 -1 0.0376 331.0957)">
	<stop  offset="0" style="stop-color:#F7F6D2"/>
	<stop  offset="1" style="stop-color:#D3DD79"/>
</linearGradient>
<path fill="url(#SVGID_2_)" d="M703.99,43.432c90.62,0.72,157.062-8.921,157.972-24.74c0.209-3.64-3.08-7.37-9.392-11.051
	l-4.811-2.42l-5.039-0.569c-117.62-11.82-217.812,0.61-313,18.08l-22.09,4.189l6.5,1.15c35.22,5.84,77.81,10.521,123.77,13.16
	C660.881,42.541,683.08,43.261,703.99,43.432z"/>
</svg>
