<?xml version="1.0" encoding="utf-8"?>
<!-- Generator: Adobe Illustrator 13.0.0, SVG Export Plug-In . SVG Version: 6.00 Build 14948)  -->
<!DOCTYPE svg PUBLIC "-//W3C//DTD SVG 1.1//EN" "http://www.w3.org/Graphics/SVG/1.1/DTD/svg11.dtd">
<svg version="1.1" id="Calque_1" xmlns="http://www.w3.org/2000/svg" xmlns:xlink="http://www.w3.org/1999/xlink" x="0px" y="0px"
	 width="1154.59px" height="622.981px" viewBox="0 0 1154.59 622.981" enable-background="new 0 0 1154.59 622.981"
	 xml:space="preserve">
<linearGradient id="SVGID_1_" gradientUnits="userSpaceOnUse" x1="591.9006" y1="259.0508" x2="579.215" y2="607.9003" gradientTransform="matrix(1 0 0 1 0.0752 -219.9287)">
	<stop  offset="0" style="stop-color:#FFFFFF"/>
	<stop  offset="1" style="stop-color:#90C160"/>
</linearGradient>
<path fill="url(#SVGID_1_)" d="M1154.59,276.986v360.89H0v-390.12C414.301,337.375,613.42,59.565,1154.59,276.986z"/>
<linearGradient id="SVGID_2_" gradientUnits="userSpaceOnUse" x1="683.4075" y1="414.0366" x2="686.4589" y2="460.6873" gradientTransform="matrix(1 0 0 1 0.0752 -219.9287)">
	<stop  offset="0" style="stop-color:#F7F6D2"/>
	<stop  offset="1" style="stop-color:#D3DD79"/>
</linearGradient>
<path fill="url(#SVGID_2_)" d="M703.99,235.146c90.62,0.72,157.063-8.921,157.973-24.74c0.209-3.64-3.08-7.37-9.393-11.051
	l-4.811-2.42l-5.039-0.569c-117.62-11.82-217.813,0.61-313,18.08l-22.09,4.189l6.5,1.15c35.22,5.84,77.81,10.521,123.77,13.16
	C660.881,234.255,683.079,234.975,703.99,235.146z"/>
</svg>
