<?xml version="1.0" encoding="utf-8"?>
<!-- Generator: Adobe Illustrator 13.0.0, SVG Export Plug-In . SVG Version: 6.00 Build 14948)  -->
<!DOCTYPE svg PUBLIC "-//W3C//DTD SVG 1.1//EN" "http://www.w3.org/Graphics/SVG/1.1/DTD/svg11.dtd">
<svg version="1.1" id="Calque_1" xmlns="http://www.w3.org/2000/svg" xmlns:xlink="http://www.w3.org/1999/xlink" x="0px" y="0px"
	 width="1154.59px" height="622.981px" viewBox="0 0 1154.59 622.981" enable-background="new 0 0 1154.59 622.981"
	 xml:space="preserve">
<linearGradient id="SVGID_1_" gradientUnits="userSpaceOnUse" x1="1115.6262" y1="235.5659" x2="987.8363" y2="528.3438">
	<stop  offset="0" style="stop-color:#3B4F29"/>
	<stop  offset="1" style="stop-color:#81B723"/>
</linearGradient>
<path fill="url(#SVGID_1_)" d="M1155.573,433.505v-38.97l-0.439-0.611c-0.067-0.898-0.131-1.788-0.198-2.688
	c-0.159-0.988-0.399-1.988-0.709-2.979c-0.2-0.572-0.421-1.141-0.62-1.721l1.97,1.109V247.926l-0.771,0.641
	c-0.189,0.201-0.381,0.4-0.569,0.6c0.108-0.73,0.221-1.46,0.33-2.19c0.61-5.169,0.3-9.04-1.359-10.04
	c-3.341-2.029-7.621,0.141-11.53,4.67c-0.147,0.19-0.3,0.381-0.448,0.57c-0.102-0.48-0.199-0.951-0.302-1.43
	c-0.839-2.36-2.671-3.979-5.817-4.36c-3.82-0.47-6.511,2.29-8.24,6.57c-0.13,0.351-0.26,0.7-0.391,1.04
	c-0.239-1.19-0.489-2.391-0.729-3.59c-1.42-6.111-3.397-10.62-5.08-10.76c-1.597-0.151-3.988,3.539-6.106,8.949
	c-0.17,0.481-0.351,0.941-0.521,1.421c-0.177-0.53-0.347-1.051-0.53-1.581c-2.677-6.91-6.788-12.01-12.026-11.989
	c-3.353,0.02-4.933,3.29-5.291,8.22v0.05c-0.279-0.46-0.562-0.93-0.84-1.39c-3.279-5.04-6.409-8.29-8.449-7.98
	c-4.131,0.63-5.813,5.771-5.71,12.771c0.01,0.3,0.029,0.609,0.04,0.92c-0.772-0.64-1.542-1.29-2.313-1.931
	c-2.93-2.029-5.899-2.819-8.64-1.659c-4.742,2-2.72,10.649,1.729,19.899c0.102,0.2,0.199,0.4,0.301,0.61
	c-0.192-0.16-0.38-0.321-0.563-0.47c-1.88-1.141-3.688-1.391-4.947-0.461c-0.953,0.689-1.463,1.95-1.563,3.531
	c0.008,0.5,0.019,1.01,0.029,1.52c-0.761-0.65-1.529-1.301-2.289-1.96c-8.051-6.271-16.472-9.481-21.222-4.431
	c-3.481,3.7-0.409,10.51,5.329,17.48c0.112,0.121,0.202,0.241,0.313,0.351c-0.42-0.161-0.83-0.32-1.25-0.48
	c-3.49-1.08-6.091-1.281-6.67-0.22c-1.211,2.25,5.08,12.741,12.42,20.35c0.869,0.781,1.739,1.56,2.608,2.351
	c-0.091,0.18-0.188,0.35-0.289,0.54c-0.659-0.66-1.319-1.31-1.989-1.98c-5.451-4.98-12.153-9.051-13.722-5.29
	c-1.182,2.839,0.449,6.339,3.25,9.48c0.199,0.209,0.398,0.419,0.608,0.63c-1.688-0.27-3.38-0.541-5.067-0.82
	c-9.909-1.03-18.421-0.26-19.421,3.12c-0.312,1.048-0.37,2.109-0.222,3.188c0.218,0.64,0.427,1.281,0.65,1.931
	c-0.21,0.201-0.42,0.4-0.62,0.6c-1.063,1.309-2.09,2.88-3.063,4.62c-0.388,0.781-0.768,1.56-1.158,2.35
	c-0.06-0.189-0.131-0.38-0.199-0.569c-3.301-8.211-8-14.19-13.79-14.07c-4.56,0.09-6,5.97-5.58,14.05
	c0.058,0.56,0.108,1.119,0.16,1.68c-0.523-0.567-1.042-1.15-1.563-1.72c-6.229-6.74-11.899-11.071-14.38-9.85
	c-5.018,2.491-4.418,11.418-0.688,21.598c0.027,0.099,0.057,0.189,0.106,0.279c-0.409-0.15-0.819-0.311-1.22-0.47
	c-2.84-0.881-5.33-0.163-7.04,3.108c-1.73,3.301-0.491,7.101,2.28,10.851c0.36,0.44,0.729,0.874,1.09,1.312
	c-0.34-0.098-0.7-0.211-1.04-0.317c-9.84-2.724-18.427-3.567-19.82-0.661c-1.56,3.258,0.07,7.389,3.62,11.569
	c0.573,0.612,1.153,1.233,1.723,1.842c-0.029,0-0.069,0-0.109,0.009c-4.547,0.531-7.54,3.088-7.36,8.938
	c0.163,4.66,3.17,8.201,7.644,10.712c0.039,0.024,0.08,0.041,0.106,0.062c-0.01,0-0.02,0-0.02,0
	c-7.802,2.129-13.53,4.869-13.49,7.899c0.059,4.75,4.637,8.64,11.24,11.181c0.162,0.057,0.32,0.108,0.479,0.159
	c-0.25,0.192-0.51,0.37-0.76,0.55c-0.573,0.58-1.14,1.16-1.72,1.729c-0.79-0.729-1.59-1.459-2.381-2.188
	c-0.989-0.607-2.052-0.961-3.17-1.027c-1.949-0.101-3.893,2.629-5.58,6.93c-0.029,0.07-0.052,0.14-0.079,0.22
	c-0.11-0.33-0.223-0.649-0.33-0.97c-2.25-6.131-5.45-10.09-9.74-9.971c-7.82,0.23-11.377,8.881-11.897,19.891
	c0,0.3-0.012,0.609-0.021,0.91c-0.193-0.279-0.372-0.563-0.56-0.84c-2.724-3.861-5.163-6.41-6.394-6.34
	c-1.46,0.08-2.26,3.916-2.25,9.188c0,0.018,0.01,0.046,0.01,0.066c-0.047-0.106-0.097-0.209-0.146-0.316
	c-5.073-10.148-10.983-17.451-16.261-15.831c-5.17,1.588-6.409,7.519-5.159,15.188c0.31,1.438,0.62,2.879,0.93,4.319
	c-1.188-1.011-2.38-2.021-3.569-3.04c-4.938-4.011-8.907-6.46-10.25-5.921c-1.421,0.58-0.718,5.021,1.433,11.07
	c0.241,0.62,0.479,1.25,0.72,1.88c-0.839-0.76-1.69-1.51-2.521-2.27c-7.5-6.301-13.959-9.72-16.868-6.649
	c-3.07,3.239-1.653,9.21,2.368,16.271c0.729,1.18,1.47,2.359,2.198,3.539c-0.068-0.031-0.148-0.07-0.229-0.1
	c-8.631-3.41-15.26-4.421-16.131-0.15c-0.67,3.18,9.438,14.17,21.871,24.18c0.738,0.58,1.479,1.17,2.229,1.74
	c-0.22-0.008-0.438-0.02-0.66-0.029c-5.979-0.02-10.43,1.449-9.46,5.959c0.511,2.402,3.02,4.395,6.49,5.84
	c0.873,0.365,1.8,0.686,2.771,0.975c0.353,0.088,0.702,0.176,1.063,0.275c-0.63,0.137-1.25,0.275-1.88,0.396
	c-7.62,2.023-12.29,5.604-8.933,11.395c0.63,1.07,2.009,2.17,3.939,3.199c2.522,1.355,5.981,2.58,9.88,3.51
	c0.58,0.121,1.16,0.24,1.75,0.361c-0.6,0.34-1.2,0.689-1.79,1.029c-5.068,3.42-7.24,7.551-3.09,12.641
	c2.071,2.539,4.561,4.449,7.3,5.76c4.783,2.289,10.313,2.721,15.682,1.65c0.852-0.211,1.698-0.43,2.552-0.66
	c-0.023,0.064-0.042,0.109-0.063,0.17c-1.446,5.5-1.59,10.391,0.054,11.949c0.298,0.299,0.719,0.51,1.229,0.65
	c0.214,0.059,0.461,0.087,0.705,0.117c-0.409,1.658-0.242,3.206,0.684,4.537c0.521,0.75,1.67,1.141,3.28,1.24
	c1.558,0.095,3.537-0.088,5.777-0.495l0.153,1.649h1.644c-3.846,5.115-5.342,9.833-2.135,12.652c1.697,1.479,3.737,2.18,5.987,2.25
	c3.94,0.119,8.521-1.684,13.03-4.594l2.142-1.51l-0.052,0.182c-1.34,5.602-1.58,10.209-0.26,11.063c0.25,0.17,0.59,0.219,1.01,0.17
	c1.96-0.26,5.61-2.74,9.4-6.301l0.409-0.42l-0.649,2.051c-1.54,5.896-1.04,11.09,3.38,13.6c1.63,0.934,3.16,1.342,4.562,1.32
	c2.142-0.041,4.021-1.051,5.658-2.76l0.563-0.65l0.028,0.25c0.83,4.74,2.842,8.063,6.222,8.432c1.648,0.182,3.79-1.908,5.989-5.303
	l0.607-0.979l0.223,2.029c0.861,5.109,2.942,8.51,6.741,8.51c5.344-0.012,9.313-4.381,11.924-10.643l0.076-0.18l1.684,2.711
	c1.816,2.395,3.99,3.688,6.396,3.219c2.05-0.393,3.77-4.614,4.878-10.375l0.021-0.016l-0.021,0.08
	c-0.398,3.699,0.938,6.68,5.091,7.969c0.841,0.26,1.659,0.359,2.449,0.313c2.961-0.172,5.562-2.359,7.738-5.578l0.813-1.354l-0.08,1
	c-0.149,7.82,1.021,14.313,3.021,14.799c1.75,0.441,5.45-3.389,9.11-8.938l0.05-0.078l0.271,2.119
	c1.25,6.896,4.261,12.25,9.521,13.08c0.42,0.061,0.82,0.08,1.21,0.041c2.63-0.23,4.53-2.631,5.813-6.281l0.119-0.381l0.521,1.451
	c2.038,5.16,4.357,8.631,6.468,8.729c4.28,0.189,7.26-4.029,8.91-10.219l0.239-0.99l1.979,2.391c2.393,2.398,5.15,3.68,8.19,3.229
	c5.26-0.771,5.55-8.609,3.55-17.609l-0.3-1.26l0.979,1.189c1.57,1.42,3.301,2.051,4.813,1.539c1.52-0.5,2.526-2.029,2.946-4.1
	l0.063-0.551l1.73,2.139c-0.667,5.439-0.307,9.564,1.473,10.629c2.727,1.635,6.007,0.677,9.308-1.897
	c3.354,1.499,6.663,1.752,9.619,0.161c2.396-1.295,3.125-3.756,2.682-6.877c2.069,0.104,4.381-1.611,6.099-4.389l0.32-0.697
	l0.06,1.301c0.603,10.318,2.96,19.83,6.09,20.43c2.41,0.471,4.58-0.809,6.399-3.219l1.681-2.721l0.069,0.188
	c2.622,6.275,6.581,10.635,11.931,10.635c3.8,0.012,5.89-3.391,6.75-8.488l0.2-2.031l0.619,0.979c2.188,3.4,4.341,5.48,5.987,5.307
	c0.854-0.096,1.61-0.371,2.28-0.814l0.563-0.561V433.525L1155.573,433.505z"/>
</svg>
