<?xml version="1.0" encoding="utf-8"?>
<!-- Generator: Adobe Illustrator 13.0.0, SVG Export Plug-In . SVG Version: 6.00 Build 14948)  -->
<!DOCTYPE svg PUBLIC "-//W3C//DTD SVG 1.1//EN" "http://www.w3.org/Graphics/SVG/1.1/DTD/svg11.dtd">
<svg version="1.1" id="Calque_1" xmlns="http://www.w3.org/2000/svg" xmlns:xlink="http://www.w3.org/1999/xlink" x="0px" y="0px"
	 width="1154.59px" height="622.981px" viewBox="0 0 1154.59 622.981" enable-background="new 0 0 1154.59 622.981"
	 xml:space="preserve">
<g>
	
		<linearGradient id="SVGID_1_" gradientUnits="userSpaceOnUse" x1="964.5901" y1="32.8652" x2="908.7199" y2="-76.0662" gradientTransform="matrix(1 0 0 -1 0.1128 401.9873)">
		<stop  offset="0" style="stop-color:#539B29"/>
		<stop  offset="1" style="stop-color:#386726"/>
	</linearGradient>
	<path fill="url(#SVGID_1_)" d="M931.288,499.647c5.344-0.012,9.313-4.381,11.924-10.643l0.076-0.18l1.684,2.711
		c1.816,2.395,3.99,3.688,6.396,3.219c3.13-0.6,5.5-10.1,6.08-20.43l0.063-1.301l0.317,0.688c1.98,3.189,4.73,4.98,7.013,4.23
		c1.141-0.379,1.979-1.342,2.511-2.66l0.25-0.852l1.569,2.521c5.277,7.699,11.657,12.6,16.381,9.77
		c2.188-1.309,2.22-7.25,0.85-14.59l-0.9-4.139l1.271,1.105c2.979,2.25,6.109,3.082,9.04,1.385c8.51-4.922,0.52-15.25-8.34-22.371
		l-2.184-1.67l1.32,0.947c6.271,3.711,16.11,6.393,17.5,4.4c0.99-1.42,0.38-3.301-1.16-5.211l-1.25-1.359l4.29,1.33
		c9.36,2.25,17.271,1.934,18.38-3.68c1.41-7.041-5.317-13.191-14.409-17.33l-1.578-0.68l4.42-2.211
		c3.83-2.24,6.317-4.432,6.147-5.771c-0.22-1.771-5.39-3.459-12.01-4.25l-1.16-0.108l1.181-0.567
		c7.729-4.433,12.859-9.642,10.052-14.142c-3.513-5.632-11.939-5.511-20.699-2.541l-0.63,0.25l2.146-4.34
		c1.71-4.101,2.394-7.351,1.45-8.312c-1.55-1.591-9.14,1.528-16.43,6.541l-2.813,2.059l1.25-3.34
		c1.5-5.31,1.313-10.328-2.157-12.237c-3.223-1.791-6.699,2.891-9.25,8.909l-0.159,0.438l0.688-3.989
		c0.87-7.603,0.34-14.291-1.46-15.041c-1.42-0.601-4.66,2.121-8.067,6.36l-1.053,1.397l0.42-2.908
		c0.62-6.182-0.47-10.898-4.46-11.489c-3.987-0.591-7.51,1.851-10.316,5.869l-0.2,0.319l-0.28-1.188
		c-1.59-5.931-4.45-9.989-8.55-9.802c-1.78,0.08-3.7,2.643-5.46,6.602l-0.09,0.2l-0.24-0.819c-1.729-5.121-4.431-8.291-8.36-7.681
		c-7.13,1.13-10.71,9.409-11.63,19.351l-0.05,0.82l-0.47-0.671c-2.28-2.989-4.37-4.87-5.48-4.603c-1.31,0.32-2.17,3.938-2.35,8.699
		v0.069l-0.11-0.271c-4.14-8.188-9.237-13.76-14.02-11.119c-4.684,2.591-5.9,8.461-4.99,15.279l0.72,3.771l-3.08-1.899
		c-4.277-2.43-7.76-3.619-8.947-2.719c-1.271,0.969-0.712,4.988,1.067,10.061l0.603,1.561l-2.183-1.369
		c-6.479-3.67-12.17-4.761-14.737-0.688c-2.729,4.32-1.5,9.671,1.938,14.979l1.892,2.578l-0.212-0.009
		c-7.46,0-13.237,2.021-13.987,6.709c-0.563,3.541,8.171,9.567,18.688,14.249l1.88,0.803l-0.56,0.221
		c-5.12,2.33-8.92,5.791-8.141,9.75c0.42,2.111,2.527,2.891,5.459,2.811c0.729-0.02,1.521-0.09,2.328-0.211l0.91-0.18l-1.6,1.16
		c-6.49,5.131-10.432,11.061-7.65,15.061c0.521,0.75,1.67,1.141,3.28,1.24c2.109,0.129,4.99-0.25,8.25-1.01l1.46-0.395l-1.5,1.73
		c-4.312,5.432-6.15,10.51-2.771,13.48c1.697,1.479,3.737,2.18,5.987,2.25c3.94,0.119,8.521-1.684,13.03-4.594l2.142-1.51
		l-0.052,0.182c-1.34,5.602-1.58,10.209-0.26,11.063c0.25,0.17,0.59,0.219,1.01,0.17c1.96-0.26,5.61-2.74,9.4-6.301l0.409-0.42
		l-0.649,2.051c-1.54,5.896-1.04,11.09,3.38,13.6c1.63,0.934,3.16,1.342,4.562,1.32c2.142-0.041,4.021-1.051,5.658-2.76l0.563-0.65
		l0.028,0.25c0.83,4.74,2.842,8.063,6.222,8.432c1.648,0.182,3.79-1.908,5.989-5.303l0.607-0.979l0.223,2.029
		C925.408,496.247,927.49,499.647,931.288,499.647z M983.48,445.155l-0.721-0.479l0.121-0.141l0.5,0.541L983.48,445.155z"/>
	
		<linearGradient id="SVGID_2_" gradientUnits="userSpaceOnUse" x1="1125.7258" y1="174.4414" x2="1063.3149" y2="28.6431" gradientTransform="matrix(1 0 0 -1 0.1128 401.9873)">
		<stop  offset="0" style="stop-color:#539B29"/>
		<stop  offset="1" style="stop-color:#386726"/>
	</linearGradient>
	<path fill="url(#SVGID_2_)" d="M1097.18,409.577c0.35-0.011,0.72-0.031,1.108-0.08c5.461-0.66,7.868-6.07,8.471-12.898l0.021-0.46
		l0.05,0.103c1.423,2.028,3.23,3.197,5.104,3.028c3.489-0.331,5.93-5.271,5.71-11.291l-0.08-1.09l1.431,3.59
		c1.842,3.397,4.569,5.41,6.961,4.771c3.182-0.851,4.551-6.08,3.039-11.67l-0.971-2.472l0.489-0.17l0.891-0.438l0.421,1.563
		c2.063,5.799,5.899,11.148,9.119,11.1c0.433-0.01,0.853-0.109,1.25-0.318c1.803-0.938,1.223-7.899-0.64-14.229l-1.07-3.029
		l1.82-1.119l0.35-0.26l0.841,2.108c2.552,5.642,6.229,10.908,9.239,10.55c0.4-0.05,0.79-0.199,1.16-0.46
		c2.789-1.961,2.49-6.278,0.72-10.7l-0.89-1.959l2.869,1.909v-139.73l-0.8,0.609l-0.61,0.57l0.351-2.17
		c0.649-5.14,0.33-9.02-1.357-10.05c-3.41-2.09-7.75,0.03-11.893,4.34l-0.488,0.53l-0.262-1.391c-0.8-2.319-2.619-3.93-5.8-4.35
		c-3.858-0.52-6.7,2.09-8.688,6.13l-0.438,0.98l-0.569-3.44c-1.141-5.84-2.908-10.14-4.578-10.279
		c-1.603-0.141-4.213,3.319-6.69,8.359l-0.619,1.313l-0.438-1.48c-2.29-6.51-6.052-11.26-11.29-11.24
		c-3.353,0.021-5.183,3.021-5.92,7.521l-0.013,0.05l-0.737-1.29c-2.9-4.62-5.771-7.569-7.83-7.29
		c-4.183,0.58-6.313,5.21-6.813,11.49l-0.04,0.82l-2.16-1.761c-2.76-1.86-5.67-2.569-8.528-1.56
		c-4.932,1.74-3.709,9.38-0.068,17.699l0.25,0.551l-0.53-0.43c-1.8-1.061-3.59-1.32-4.95-0.53c-1.02,0.58-1.658,1.68-1.897,3.069
		l-0.109,1.351l-2.13-1.79c-7.511-5.729-15.641-8.6-20.87-4.3c-3.84,3.149-1.42,9.07,3.66,15.279l0.271,0.311l-1.2-0.45
		c-3.392-1.029-5.979-1.26-6.649-0.36c-1.43,1.91,3.841,11.101,10.479,18.021l2.397,2.15l-0.34,0.459l-1.811-1.799
		c-5.011-4.561-11.313-8.271-13.229-5.07c-1.438,2.41-0.16,5.47,2.33,8.289l0.562,0.561l-4.989-0.88
		c-9.761-1.22-18.22-0.72-19.511,2.149c-1.602,3.551,0.631,7.438,4.932,10.979l1.039,0.78l-0.539,0.17
		c-2.371,1.16-3.852,3.29-3.881,6.739c-0.029,3.711,2.438,6.25,6.188,7.881l0.08,0.029l-0.567,0.141
		c-6.83,1.85-11.899,4.35-12.11,6.76c-0.311,3.48,2.62,6.152,7.2,7.939l1.22,0.432l-1.34,0.99c-1.869,1.859-2.58,4.359-1.49,7.631
		c1.451,4.408,6.03,5.799,11.604,5.488l1.521-0.148l-1.961,1.068c-2.38,1.721-3.67,3.699-2.979,5.66
		c0.58,1.629,5.211,2.301,10.641,2.069l2.319-0.171l-5.393,2.641c-6,3.67-9.409,8.42-5.299,13.66c1.659,2.12,3.979,2.891,6.648,2.7
		c1.438-0.101,3-0.479,4.591-1.07l0,0l-1.03,1.353c-3.761,5.271-5.91,9.947-4.66,11.789c0.892,1.312,2.24,2.021,3.899,2.229
		c2.541,0.317,5.818-0.55,9.302-2.199l1.26-0.63l-0.42,0.738c-0.7,1.619-0.66,3.063,0.449,4.102c0.92,0.883,2.061,1.313,3.329,1.398
		c0.271,0.021,0.562,0.021,0.852,0.012c3.359-0.161,7.46-2.471,11-5.527l1.438-1.422l0.96,0.721l-0.54,0.619
		c-2.96,4.342-3.358,9.239-0.88,10.932c0.619,0.42,1.358,0.59,2.158,0.561c0.61-0.021,1.25-0.171,1.91-0.432l0.66-0.299l-0.93,3.22
		c-1.842,9.431-0.791,18.14,5.51,20.979c0.83,0.381,1.66,0.528,2.479,0.471c3.432-0.23,6.608-4.09,9.278-9.59l0.642-1.41l0.108,1.02
		c0.609,3.53,1.58,5.961,2.7,6.15c1.181,0.22,3.25-1.91,5.42-5.221l1.021-1.689l0.21,3.461
		C1089.31,405.834,1091.81,409.715,1097.18,409.577z"/>
	
		<linearGradient id="SVGID_3_" gradientUnits="userSpaceOnUse" x1="1147.0579" y1="17.1816" x2="1091.1852" y2="-91.7449" gradientTransform="matrix(1 0 0 -1 0.1128 401.9873)">
		<stop  offset="0" style="stop-color:#539B29"/>
		<stop  offset="1" style="stop-color:#386726"/>
	</linearGradient>
	<path fill="url(#SVGID_3_)" d="M1138.19,523.635c3.8,0.012,5.89-3.391,6.75-8.488l0.2-2.031l0.619,0.979
		c2.188,3.4,4.341,5.48,5.987,5.307c0.854-0.096,1.61-0.371,2.28-0.814l0.563-0.561V382.525l-2.709-3.34
		c-1.354-1.09-2.91-1.817-4.7-2.108c-3.921-0.619-6.63,2.562-8.36,7.68l-0.24,0.82l-0.077-0.199
		c-1.763-3.951-3.683-6.521-5.46-6.603c-4.103-0.188-6.96,3.871-8.553,9.791l-0.29,1.2l-0.188-0.313
		c-2.819-4.021-6.329-6.471-10.329-5.879c-3.979,0.6-5.063,5.309-4.45,11.488l0.42,2.898l-1.05-1.391
		c-3.41-4.23-6.66-6.949-8.068-6.352c-1.802,0.75-2.329,7.43-1.459,15.021l0.697,3.989l-0.181-0.42
		c-2.539-6.028-6.021-10.711-9.239-8.933c-3.47,1.922-3.66,6.951-2.17,12.25l1.25,3.34l-2.813-2.059
		c-7.278-5.021-14.881-8.143-16.431-6.541c-0.931,0.971-0.26,4.211,1.45,8.301l2.16,4.34l-0.644-0.239
		c-8.75-2.97-17.188-3.09-20.696,2.541c-2.804,4.499,2.328,9.71,10.06,14.147l1.17,0.57l-1.16,0.1
		c-6.607,0.791-11.777,2.48-12,4.262c-0.17,1.328,2.32,3.521,6.15,5.75l4.42,2.223l-1.591,0.68
		c-9.09,4.15-15.811,10.299-14.409,17.33c1.12,5.609,9.021,5.93,18.39,3.688l4.291-1.342l-1.25,1.361
		c-1.541,1.91-2.147,3.789-1.158,5.219c1.39,1.98,11.22-0.699,17.5-4.408l1.328-0.961l-2.198,1.684
		c-8.853,7.119-16.84,17.447-8.33,22.369c2.92,1.697,6.051,0.867,9.03-1.383l1.277-1.107l-0.897,4.141
		c-1.38,7.33-1.34,13.279,0.851,14.59c4.72,2.83,11.102-2.08,16.37-9.77l1.569-2.521l0.25,0.854c0.54,1.33,1.39,2.277,2.527,2.66
		c2.271,0.75,5.021-1.041,6.99-4.225l0.32-0.697l0.06,1.301c0.603,10.318,2.96,19.83,6.09,20.43c2.41,0.471,4.58-0.809,6.399-3.219
		l1.681-2.721l0.069,0.188C1128.881,519.276,1132.84,523.635,1138.19,523.635z M1085.999,469.155l0.109-0.078l0.49-0.541l0.12,0.141
		L1085.999,469.155z"/>
	
		<linearGradient id="SVGID_4_" gradientUnits="userSpaceOnUse" x1="1041.5608" y1="57.8433" x2="984.9954" y2="-50.4577" gradientTransform="matrix(1 0 0 -1 0.1128 401.9873)">
		<stop  offset="0" style="stop-color:#539B29"/>
		<stop  offset="1" style="stop-color:#386726"/>
	</linearGradient>
	<path fill="url(#SVGID_4_)" d="M1014.36,474.334c4.28,0.189,7.26-4.029,8.91-10.219l0.239-0.99l1.979,2.391
		c2.393,2.398,5.15,3.68,8.19,3.229c5.26-0.771,5.55-8.609,3.55-17.609l-0.3-1.26l0.979,1.189c1.57,1.42,3.301,2.051,4.813,1.539
		c1.52-0.5,2.526-2.029,2.946-4.1l0.063-0.551l2.16,2.67c6.369,7.182,13.91,11.621,19.97,8.361c4.83-2.611,2.899-9.951-1.8-17.92
		l-0.183-0.281l3.13,1.67c3.279,1.471,5.853,2.041,6.643,1.221c1.45-1.49-1.37-9.041-5.87-16.1l-2.1-3.01l0.697-0.771l1.671,1.559
		c3.159,2.57,6.448,4.441,8.672,4.271c0.84-0.059,1.526-0.43,1.979-1.16c1.74-2.75-0.107-6.449-3.3-9.68l-0.66-0.609l7.5-0.051
		c9.979-0.58,18.33-2.642,19.09-5.75c1.144-4.642-3.42-8.771-10.35-11.689l-2.102-0.818l2.188-1.191
		c3.312-2.219,4.83-5.379,3.03-9.68c-1.91-4.561-7.053-5.49-13.03-4.5l-0.2,0.051l0.24-0.237c6.37-6.711,10.7-13.384,9.25-15.961
		c-2.17-3.853-7.86-3.763-14.38-1.353l-0.28,0.121l0.75-1.642c1.3-3.771,0.62-7.209-3.41-9.55c-4.89-2.85-10.27,0.631-14.88,6.26
		l-0.05,0.061l1.26-4.08c0.521-2.93,0.07-5.299-1.83-6.229c-1.84-0.91-6.75,3.04-11.09,8.102l-0.51,0.642l2.35-6.812
		c1.683-6.932,0.721-12.789-5.979-13.619c-4.07-0.5-7.04,2.271-9.08,6.527l-0.49,1.102l-0.33-2.469
		c-1.06-6.479-2.87-11.392-5.08-11.82c-3.17-0.621-5.92,1.82-8,5.879l-0.317,0.73l-0.209-0.529c-2.5-6.01-6.32-10.189-11.45-10.189
		c-3.19,0-5.11,2.5-6.104,6.398l-0.18,0.871l-0.13-0.211c-2.95-5-5.91-8.221-8.11-7.971c-4.776,0.529-7.196,6.109-7.67,13.569
		l-0.06,1.329l-0.92-0.51c-1.671-0.74-3.57-0.648-5.722,0.567c-2.791,1.58-3.602,4.521-3.182,8.021l0.21,1.141l-3.12-3.129
		c-5.39-5.092-10.369-8.262-12.646-7.133c-3.341,1.65-4.104,5.852-3.11,11.063l0.149,0.672l-0.079-0.053
		c-3.98-1.938-7.854-1.641-10.98,2.473c-2.29,3.021-2.066,6.549-0.3,10.159l1.42,2.397l-1.75-0.51
		c-7.62-1.972-13.856-2.371-15.397-0.16c-2.813,4.029,0.119,9.699,5.761,15.052l0.079,0.079l-3.699,0.711
		c-5.59,1.479-9.71,4.357-10.69,9.01c-1.197,5.75,6.393,9.159,16.271,10.7l1.16,0.147l-1.461,0.739
		c-2.63,1.521-4.17,3.431-3.659,5.521c0.438,1.75,5.146,2.9,10.77,3.212l2.15,0.069l-1.14,0.891
		c-7.791,6.643-13.15,15.078-9.354,21.102c0.86,1.371,2.149,2.041,3.729,2.17c2.067,0.148,4.647-0.65,7.448-2.09l1.893-1.08
		l-0.66,1.41c-2.92,6.721-4.17,12.43-2.351,14.16c1.291,1.236,2.961,1.697,4.851,1.537c2.479-0.221,5.35-1.52,8.3-3.561l1.2-0.879
		l-0.021,0.08c-0.398,3.699,0.938,6.68,5.091,7.969c0.841,0.26,1.659,0.359,2.449,0.313c2.961-0.172,5.562-2.359,7.738-5.578
		l0.813-1.354l-0.08,1c-0.149,7.82,1.021,14.313,3.021,14.799c1.75,0.441,5.45-3.389,9.11-8.938l0.05-0.078l0.271,2.119
		c1.25,6.896,4.261,12.25,9.521,13.08c0.42,0.061,0.82,0.08,1.21,0.041c2.63-0.23,4.53-2.631,5.813-6.281l0.119-0.381l0.521,1.451
		C1009.93,470.766,1012.249,474.237,1014.36,474.334z"/>
	
		<linearGradient id="SVGID_5_" gradientUnits="userSpaceOnUse" x1="1018.1584" y1="113.3345" x2="980.091" y2="11.8317" gradientTransform="matrix(1 0 0 -1 0.1128 401.9873)">
		<stop  offset="0" style="stop-color:#539B29"/>
		<stop  offset="1" style="stop-color:#386726"/>
	</linearGradient>
	<path fill="url(#SVGID_5_)" d="M976.51,411.327c3.921,0.09,8.341-3.922,12.107-9.691l0.21-0.34l0.054,0.33
		c0.986,5.051,3.618,8.371,8.868,7.41c5.198-0.97,6.828-6.811,6.591-13.66l-0.012-0.049l0.039,0.049
		c5.973,7.201,12.78,12.563,14.82,11.381c1.53-0.891,1.55-6.121,0.35-12.528l-0.42-1.959l3.62,1.987
		c6.2,2.99,12.2,3.682,15.894-0.028c2.64-2.669,1.27-6.647-2.2-10.88l-0.939-1.07l0.209,0.041c7.49,1.262,13.521,1.102,14.82-1.148
		c2.33-4.049-0.83-9.148-6.54-13.771l-0.25-0.199l0.88-0.141c4.76-1.109,8.32-3.438,9.26-7.354c1.223-5.07-5.828-8.209-14.76-9.681
		l-1.41-0.198l1.29-0.479c1.813-1.012,2.95-2.422,2.973-3.99c0.011-1.563-1.093-2.988-2.893-4.039l-0.489-0.238l3.199-1.4
		c8.45-4.149,14.63-10.129,13.12-16.719c-1.22-5.262-8.67-5.34-17.42-2.973l-0.062,0.012l0.238-0.24
		c3.32-3.688,5.303-7.01,4.553-8.198c-1.329-2.15-13.029-0.261-22.159,3.909l-1.313,0.629l3.55-2.288
		c5.021-3.601,9.11-8.141,6.7-10.561c-2.26-2.26-6.2-1.3-9.99,1.04l-0.229,0.16l1.609-6.53c1.857-9.641,1.921-18.09-0.853-19.561
		c-4.147-2.209-9.18,1.141-13.64,7.021l-1.343,1.97l-0.147-0.479c-2.48-7.08-6.57-12.24-12.24-12.17
		c-4.47,0.05-6.37,5.079-6.62,11.96l0.014,1.43l-1.36-1.47c-5.49-5.74-10.65-9.4-13.15-8.32c-5.04,2.18-5.12,9.83-2.316,18.479
		l0.09,0.241l-1.13-0.381c-2.65-0.71-5.092-0.03-6.96,2.82c-1.883,2.87-0.974,6.11,1.396,9.24l0.94,1.1l-0.98-0.25
		c-9.13-2.07-17.18-2.37-18.68,0.221c-1.67,2.908-0.38,6.398,2.68,9.818l1.49,1.51l-0.109,0.011c-4.301,0.69-7.237,3.12-7.421,8.201
		c-0.13,4.038,2.45,6.879,6.44,8.788l0.1,0.041l-0.028,0.011c-7.358,2.31-12.771,5.239-12.908,7.879
		c-0.2,4.149,3.77,7.101,9.658,8.812l0.438,0.091l-0.729,0.538c-4.368,3.621-6.858,7.9-5.812,12.451
		c0.853,3.619,4.562,4.858,9.63,4.562c1.894-0.106,3.99-0.45,6.19-0.959l0.75-0.188l-0.2,0.25c-1.09,1.619-1.41,3.221-0.62,4.59
		c0.44,0.771,1.853,1.102,3.82,1.09c2.13,0,4.93-0.42,7.88-1.129l0.34-0.104l-0.24,0.303c-6.13,7.971-9.566,17.158-4.688,22.17
		c0.83,0.857,1.81,1.291,2.898,1.371c2.63,0.18,5.898-1.723,9.229-4.75l0.71-0.691l-0.37,2.24c-0.96,7.131-0.63,12.857,1.55,14.01
		C974.86,411.095,975.67,411.306,976.51,411.327z M1013.44,319.344l0.43-0.889l0.854-0.313l2.188-1.092l-1.39,0.818
		c-0.69,0.432-1.351,0.881-1.95,1.34L1013.44,319.344z"/>
	
		<linearGradient id="SVGID_6_" gradientUnits="userSpaceOnUse" x1="1120.6458" y1="70.9912" x2="1092.6448" y2="-3.6784" gradientTransform="matrix(1 0 0 -1 0.1128 401.9873)">
		<stop  offset="0" style="stop-color:#539B29"/>
		<stop  offset="1" style="stop-color:#386726"/>
	</linearGradient>
	<path fill="url(#SVGID_6_)" d="M1109.34,422.934c3.291-0.037,4.688-3.738,4.87-8.809l-0.013-1.051l1.013,1.077
		c4.027,4.229,7.827,6.933,9.657,6.134c3.71-1.611,3.771-7.229,1.71-13.593l-0.05-0.18l0.82,0.276
		c1.947,0.521,3.736,0.021,5.118-2.067c1.382-2.12,0.712-4.5-1.028-6.802l-0.69-0.811l0.724,0.18c6.72,1.521,12.64,1.75,13.729-0.16
		c1.24-2.139,0.29-4.709-1.96-7.229l-1.1-1.1l0.08-0.012c3.17-0.511,5.328-2.299,5.46-6.027c0.1-2.979-1.803-5.063-4.73-6.473
		l-0.067-0.027h0.011c5.42-1.711,9.396-3.859,9.5-5.813c0.146-3.052-2.771-5.221-7.11-6.471l-0.318-0.081l0.538-0.38
		c3.224-2.67,5.04-5.811,4.271-9.159c-0.62-2.67-3.354-3.58-7.08-3.358c-1.4,0.09-2.938,0.33-4.562,0.699l-0.562,0.148l0.16-0.188
		c0.8-1.189,1.04-2.359,0.46-3.382c-0.32-0.562-1.36-0.812-2.813-0.8c-1.567,0-3.631,0.311-5.801,0.841l-0.26,0.062l0.188-0.211
		c4.5-5.858,7.03-12.619,3.451-16.312c-0.607-0.63-1.341-0.948-2.141-1c-1.932-0.142-4.33,1.261-6.79,3.489l-0.521,0.5l0.271-1.648
		c0.71-5.24,0.47-9.459-1.142-10.3c-0.568-0.313-1.171-0.461-1.791-0.479c-2.88-0.069-6.13,2.881-8.897,7.131l-0.16,0.261
		l-0.03-0.261c-0.729-3.7-2.67-6.148-6.527-5.438c-3.819,0.709-5.021,5.01-4.841,10.039v0.04l-0.028-0.04
		c-4.392-5.302-9.41-9.24-10.899-8.369c-1.141,0.647-1.141,4.5-0.261,9.219l0.311,1.441l-2.659-1.462
		c-4.562-2.198-8.979-2.711-11.688,0.021c-1.938,1.961-0.931,4.893,1.62,8l0.681,0.791l-0.148-0.028
		c-5.5-0.921-9.939-0.812-10.899,0.839c-1.71,2.979,0.61,6.74,4.812,10.143l0.188,0.141l-0.649,0.109
		c-3.5,0.812-6.119,2.527-6.817,5.41c-0.892,3.729,4.3,6.027,10.858,7.108l1.039,0.157l-0.938,0.352
		c-1.341,0.741-2.182,1.771-2.188,2.932c-0.012,1.148,0.799,2.198,2.118,2.971l0.37,0.181l-2.359,1.021
		c-6.221,3.062-10.761,7.459-9.647,12.312c0.897,3.871,6.38,3.92,12.817,2.188l0.029-0.01l-0.158,0.18
		c-2.45,2.709-3.899,5.15-3.358,6.021c0.979,1.58,9.6,0.188,16.31-2.881l0.961-0.447l-2.609,1.668c-3.688,2.66-6.698,6-4.932,7.771
		c1.66,1.658,4.563,0.96,7.36-0.762l0.16-0.107l-1.19,4.799c-1.357,7.094-1.398,13.303,0.632,14.393
		c3.049,1.621,6.75-0.83,10.028-5.17l0.99-1.449l0.107,0.359C1102.17,419.185,1105.18,422.987,1109.34,422.934z M1091.14,391.775
		l1.02-0.601c0.513-0.319,0.99-0.649,1.433-1l0.101-0.08l-0.318,0.642l-0.632,0.239L1091.14,391.775z"/>
</g>
</svg>
