<?xml version="1.0" encoding="utf-8"?>
<!-- Generator: Adobe Illustrator 13.0.0, SVG Export Plug-In . SVG Version: 6.00 Build 14948)  -->
<!DOCTYPE svg PUBLIC "-//W3C//DTD SVG 1.1//EN" "http://www.w3.org/Graphics/SVG/1.1/DTD/svg11.dtd">
<svg version="1.1" id="Calque_1" xmlns="http://www.w3.org/2000/svg" xmlns:xlink="http://www.w3.org/1999/xlink" x="0px" y="0px"
	 width="1154.59px" height="622.981px" viewBox="0 0 1154.59 622.981" enable-background="new 0 0 1154.59 622.981"
	 xml:space="preserve">
<g>
	<g>
		
			<linearGradient id="SVGID_1_" gradientUnits="userSpaceOnUse" x1="159.302" y1="337.9614" x2="183.516" y2="273.4015" gradientTransform="matrix(1 0 0 -1 0.1128 401.9873)">
			<stop  offset="0" style="stop-color:#539B29"/>
			<stop  offset="1" style="stop-color:#386726"/>
		</linearGradient>
		<path fill="url(#SVGID_1_)" d="M185.98,142.045c-2.49,0.06-5.3-2.489-7.688-6.16l-0.142-0.22l-0.028,0.21
			c-0.632,3.21-2.313,5.33-5.642,4.71c-3.318-0.609-4.351-4.33-4.188-8.68v-0.03l-0.03,0.03c-3.789,4.58-8.13,7.99-9.42,7.229
			c-0.979-0.56-0.979-3.88-0.22-7.97l0.271-1.24l-2.312,1.271c-3.938,1.899-7.762,2.34-10.102-0.03
			c-1.681-1.689-0.811-4.22,1.399-6.91l0.59-0.689l-0.13,0.029c-4.76,0.801-8.609,0.7-9.43-0.729c-1.472-2.57,0.528-5.82,4.158-8.76
			l0.16-0.13l-0.561-0.09c-3.029-0.7-5.29-2.19-5.892-4.67c-0.771-3.23,3.71-5.22,9.392-6.15l0.898-0.13l-0.818-0.31
			c-1.16-0.64-1.88-1.54-1.892-2.53c-0.01-1,0.689-1.91,1.83-2.57l0.319-0.16l-2.04-0.89c-5.369-2.64-9.3-6.44-8.34-10.63
			c0.771-3.35,5.511-3.4,11.08-1.89h0.028l-0.14-0.15c-2.12-2.35-3.381-4.45-2.9-5.21c0.852-1.37,8.29-0.17,14.092,2.48l0.84,0.4
			l-2.261-1.45c-3.199-2.29-5.79-5.18-4.261-6.72c1.432-1.43,3.939-0.82,6.352,0.66l0.148,0.1l-1.028-4.14
			c-1.182-6.14-1.209-11.51,0.55-12.45c2.63-1.4,5.841,0.72,8.67,4.46l0.858,1.26l0.08-0.3c1.592-4.51,4.19-7.79,7.79-7.75
			c2.841,0.04,4.052,3.23,4.21,7.61v0.91l0.86-0.93c3.489-3.66,6.771-5.98,8.359-5.3c3.21,1.39,3.261,6.25,1.479,11.76l-0.05,0.15
			l0.71-0.25c1.688-0.45,3.239-0.01,4.42,1.79c1.2,1.84,0.62,3.9-0.88,5.89l-0.603,0.7l0.619-0.16
			c5.813-1.32,10.932-1.51,11.881,0.14c1.063,1.85,0.25,4.07-1.699,6.25l-0.949,0.95l0.069,0.01c2.729,0.44,4.601,1.98,4.71,5.22
			c0.09,2.57-1.552,4.37-4.092,5.58l-0.06,0.03h0.021c4.683,1.48,8.131,3.34,8.21,5.02c0.131,2.64-2.398,4.51-6.141,5.6l-0.279,0.07
			l0.46,0.33c2.779,2.3,4.369,5.02,3.689,7.91c-0.53,2.31-2.891,3.11-6.12,2.91c-1.2-0.07-2.54-0.28-3.938-0.6l-0.479-0.13
			l0.141,0.16c0.689,1.03,0.893,2.04,0.393,2.92c-0.28,0.49-1.171,0.7-2.433,0.69c-1.351,0-3.141-0.27-5.021-0.72l-0.21-0.06
			l0.149,0.19c3.898,5.069,6.09,10.92,2.988,14.1c-0.528,0.55-1.148,0.82-1.85,0.87c-1.67,0.12-3.75-1.09-5.88-3.02l-0.44-0.44
			l0.229,1.431c0.62,4.529,0.409,8.18-0.979,8.909C187.03,141.896,186.52,142.025,185.98,142.045z M162.5,83.545l-0.279-0.56
			l-0.53-0.2l-1.398-0.7l0.88,0.53c0.45,0.27,0.858,0.55,1.24,0.85L162.5,83.545z"/>
		
			<linearGradient id="SVGID_2_" gradientUnits="userSpaceOnUse" x1="34.116" y1="300.2354" x2="58.3232" y2="235.675" gradientTransform="matrix(1 0 0 -1 0.1128 401.9873)">
			<stop  offset="0" style="stop-color:#539B29"/>
			<stop  offset="1" style="stop-color:#386726"/>
		</linearGradient>
		<path fill="url(#SVGID_2_)" d="M44.09,181.236c-2.84-0.03-4.05-3.23-4.21-7.601l0.011-0.92l-0.87,0.94
			c-3.49,3.65-6.778,5.979-8.358,5.3c-3.2-1.39-3.25-6.26-1.479-11.75l0.05-0.16l-0.71,0.24c-1.681,0.45-3.238,0.021-4.42-1.79
			c-1.2-1.83-0.62-3.891,0.892-5.88l0.59-0.7l-0.62,0.15c-5.812,1.319-10.93,1.52-11.87-0.131c-1.069-1.859-0.25-4.069,1.69-6.25
			l0.948-0.949l-0.068-0.01c-2.729-0.44-4.602-1.99-4.71-5.21c-0.092-2.581,1.55-4.381,4.09-5.601l0.062-0.03H15.08
			c-4.682-1.47-8.12-3.329-8.2-5.01c-0.13-2.64,2.391-4.521,6.141-5.601l0.271-0.069l-0.46-0.34c-2.78-2.3-4.37-5.021-3.688-7.91
			c0.529-2.31,2.898-3.1,6.12-2.9c1.21,0.07,2.539,0.28,3.939,0.6l0.479,0.13l-0.131-0.16c-0.689-1.03-0.899-2.05-0.399-2.93
			c0.28-0.48,1.182-0.69,2.432-0.69c1.358,0.01,3.142,0.27,5.01,0.72l0.229,0.07l-0.158-0.19c-3.899-5.07-6.092-10.91-2.99-14.11
			c0.53-0.54,1.16-0.81,1.851-0.86c1.67-0.12,3.75,1.09,5.87,3.02l0.449,0.43l-0.229-1.42c-0.618-4.54-0.398-8.18,0.979-8.91
			c0.5-0.27,1.021-0.4,1.551-0.41c2.489-0.06,5.3,2.48,7.699,6.16l0.141,0.22l0.021-0.22c0.63-3.2,2.311-5.32,5.648-4.71
			c3.312,0.61,4.342,4.34,4.182,8.69v0.03l0.028-0.03c3.79-4.58,8.132-7.99,9.432-7.24c0.971,0.57,0.979,3.9,0.21,7.97l-0.271,1.25
			l2.312-1.27c3.938-1.89,7.76-2.34,10.108,0.02c1.682,1.69,0.802,4.23-1.408,6.92l-0.592,0.68l0.132-0.02
			c4.76-0.8,8.6-0.7,9.43,0.73c1.479,2.57-0.529,5.82-4.16,8.76l-0.159,0.12l0.562,0.09c3.028,0.71,5.29,2.189,5.89,4.68
			c0.771,3.221-3.71,5.21-9.39,6.15l-0.9,0.14l0.82,0.301c1.16,0.64,1.88,1.54,1.891,2.529c0.01,1-0.688,1.91-1.83,2.57l-0.319,0.15
			l2.04,0.89c5.381,2.65,9.301,6.449,8.341,10.64c-0.771,3.34-5.512,3.4-11.091,1.89l-0.021-0.01l0.15,0.16
			c2.108,2.34,3.358,4.46,2.898,5.21c-0.851,1.36-8.301,0.16-14.101-2.489l-0.83-0.4l2.25,1.46c3.2,2.29,5.8,5.18,4.271,6.71
			c-1.438,1.44-3.948,0.83-6.37-0.66l-0.14-0.1l1.029,4.16c1.182,6.119,1.221,11.489-0.54,12.43c-2.642,1.41-5.84-0.71-8.67-4.46
			l-0.858-1.261l-0.091,0.311C50.29,177.996,47.69,181.286,44.09,181.236z M59.83,154.295l-0.88-0.521
			c-0.44-0.27-0.86-0.56-1.24-0.859l-0.09-0.07l0.271,0.563l0.55,0.199L59.83,154.295z"/>
	</g>
</g>
<g>
	<g>
		<g>
			
				<linearGradient id="SVGID_3_" gradientUnits="userSpaceOnUse" x1="275.47" y1="221.2432" x2="278.9847" y2="170.1809" gradientTransform="matrix(1 0 0 -1 0.1128 401.9873)">
				<stop  offset="0" style="stop-color:#E4EED0"/>
				<stop  offset="1" style="stop-color:#76A999"/>
			</linearGradient>
			<path fill="url(#SVGID_3_)" d="M288.35,177.755h-0.03l-0.18,0.04v-0.04H288.35z M263.87,188.116l-0.04,0.27l0.142,0.431
				l-0.15,0.539l-0.618-0.159l-0.012-0.011l0.091-0.369l0.091-0.62l0.13,0.01L263.87,188.116z M282.73,214.956l-0.04,0.27
				c-0.01,0.28-0.01,0.55,0.03,0.811l0.119,0.521l-0.55-0.65c-0.229-0.21-0.5-0.41-0.802-0.6l-0.328-0.19l0.562,0.06
				c0.369,0,0.688-0.06,0.938-0.18L282.73,214.956z M282.84,216.556l0.03,0.029c0.068,0.12,0.13,0.24,0.18,0.36l0.051,0.189
				l-0.21-0.39L282.84,216.556z M289.69,228.146l-0.16,0.09l-0.17-0.051l-0.448-0.069l0.3,0.03c0.148,0.01,0.3,0.01,0.438,0H289.69z
				"/>
		</g>
	</g>
</g>
<linearGradient id="SVGID_4_" gradientUnits="userSpaceOnUse" x1="86.5945" y1="243.646" x2="62.3873" y2="179.0868" gradientTransform="matrix(1 0 0 -1 0.1128 401.9873)">
	<stop  offset="0" style="stop-color:#539B29"/>
	<stop  offset="1" style="stop-color:#386726"/>
</linearGradient>
<path fill="url(#SVGID_4_)" d="M60.15,236.366c2.49,0.05,5.302-2.49,7.7-6.16l0.13-0.22l0.029,0.21c0.641,3.21,2.311,5.32,5.65,4.71
	c3.3-0.61,4.34-4.33,4.188-8.681l-0.011-0.029l0.03,0.029c3.79,4.581,8.13,7.98,9.419,7.23c0.979-0.56,0.979-3.89,0.229-7.97
	l-0.28-1.24l2.312,1.26c3.95,1.9,7.761,2.34,10.101-0.02c1.689-1.7,0.812-4.23-1.398-6.92l-0.59-0.681l0.13,0.03
	c4.771,0.8,8.602,0.7,9.432-0.73c1.479-2.58-0.53-5.83-4.161-8.76l-0.16-0.13l0.562-0.09c3.021-0.7,5.29-2.189,5.891-4.681
	c0.779-3.219-3.71-5.209-9.391-6.149l-0.899-0.13l0.819-0.311c1.16-0.64,1.88-1.529,1.891-2.529c0.01-0.99-0.688-1.9-1.83-2.57
	l-0.311-0.15l2.03-0.89c5.38-2.64,9.312-6.45,8.34-10.64c-0.771-3.34-5.512-3.39-11.08-1.89l-0.029,0.009l0.14-0.149
	c2.12-2.34,3.382-4.46,2.91-5.22c-0.851-1.36-8.29-0.16-14.101,2.49L87,175.795l2.26-1.46c3.2-2.279,5.79-5.17,4.271-6.71
	c-1.438-1.44-3.948-0.819-6.358,0.66l-0.149,0.1l1.029-4.149c1.181-6.131,1.221-11.5-0.54-12.44c-2.64-1.41-5.84,0.721-8.68,4.46
	l-0.852,1.261l-0.09-0.311c-1.591-4.5-4.188-7.78-7.79-7.74c-2.841,0.03-4.051,3.23-4.21,7.61l0.01,0.91l-0.87-0.94
	c-3.488-3.649-6.771-5.97-8.358-5.29c-3.21,1.391-3.25,6.261-1.47,11.75l0.05,0.15l-0.722-0.23c-1.68-0.449-3.238-0.029-4.42,1.79
	c-1.198,1.83-0.618,3.88,0.882,5.87l0.6,0.7l-0.619-0.16c-5.812-1.31-10.932-1.51-11.881,0.149c-1.062,1.841-0.239,4.07,1.7,6.25
	l0.95,0.951h-0.07c-2.729,0.449-4.602,1.989-4.72,5.22c-0.08,2.57,1.56,4.38,4.1,5.59l0.061,0.03H41.1
	c-4.688,1.47-8.13,3.34-8.21,5.02c-0.131,2.63,2.39,4.51,6.14,5.6l0.28,0.061l-0.471,0.34c-2.779,2.311-4.359,5.02-3.689,7.92
	c0.53,2.301,2.892,3.09,6.12,2.9c1.21-0.07,2.54-0.29,3.939-0.61l0.479-0.12l-0.13,0.16c-0.688,1.03-0.898,2.04-0.398,2.92
	c0.278,0.49,1.18,0.7,2.43,0.69c1.36,0,3.141-0.271,5.011-0.721l0.229-0.06l-0.16,0.189c-3.899,5.061-6.09,10.911-2.989,14.101
	c0.529,0.55,1.159,0.819,1.85,0.87c1.672,0.109,3.75-1.09,5.87-3.02l0.45-0.44l-0.229,1.42c-0.62,4.54-0.4,8.189,0.979,8.92
	C59.1,236.215,59.62,236.345,60.15,236.366z M83.63,177.866l0.28-0.56l0.54-0.211l1.39-0.688l-0.88,0.52
	c-0.439,0.271-0.859,0.57-1.239,0.86L83.63,177.866z"/>
</svg>
