<?xml version="1.0" encoding="utf-8"?>
<!-- Generator: Adobe Illustrator 13.0.0, SVG Export Plug-In . SVG Version: 6.00 Build 14948)  -->
<!DOCTYPE svg PUBLIC "-//W3C//DTD SVG 1.1//EN" "http://www.w3.org/Graphics/SVG/1.1/DTD/svg11.dtd">
<svg version="1.1" id="Calque_1" xmlns="http://www.w3.org/2000/svg" xmlns:xlink="http://www.w3.org/1999/xlink" x="0px" y="0px"
	 width="1154.59px" height="622.981px" viewBox="0 0 1154.59 622.981" enable-background="new 0 0 1154.59 622.981"
	 xml:space="preserve">
<g>
	<g>
		
			<linearGradient id="SVGID_1_" gradientUnits="userSpaceOnUse" x1="164.1057" y1="354.646" x2="212.4121" y2="448.8248" gradientTransform="matrix(1 0 0 1 0.0752 -219.9287)">
			<stop  offset="0" style="stop-color:#539B29"/>
			<stop  offset="1" style="stop-color:#386726"/>
		</linearGradient>
		<path fill="url(#SVGID_1_)" d="M193.08,247.556c-4.63,0-8.069-3.781-10.319-9.19l-0.061-0.16l-1.461,2.351
			c-1.569,2.069-3.449,3.18-5.529,2.779c-2.71-0.52-4.76-8.74-5.26-17.66l-0.051-1.13l-0.279,0.601c-1.71,2.76-4.091,4.3-6.051,3.66
			c-0.989-0.331-1.72-1.16-2.18-2.311l-0.221-0.729l-1.351,2.18c-4.569,6.649-10.08,10.89-14.159,8.45
			c-1.891-1.141-1.931-6.28-0.74-12.621l0.78-3.579l-1.11,0.97c-2.569,1.939-5.271,2.65-7.811,1.189
			c-7.35-4.26-0.439-13.189,7.21-19.35l1.891-1.439l-1.141,0.819c-5.42,3.21-13.93,5.53-15.119,3.811
			c-0.859-1.23-0.331-2.851,0.989-4.511l1.091-1.169l-3.711,1.149c-8.1,1.939-14.93,1.67-15.899-3.189
			c-1.22-6.08,4.601-11.391,12.46-14.98l1.37-0.59l-3.819-1.91c-3.32-1.939-5.46-3.83-5.32-4.979c0.19-1.53,4.66-3,10.381-3.681
			l1-0.09l-1.011-0.5c-6.689-3.82-11.12-8.34-8.699-12.221c3.04-4.869,10.329-4.77,17.899-2.199l0.55,0.21l-1.859-3.75
			c-1.479-3.54-2.068-6.351-1.261-7.181c1.341-1.379,7.91,1.311,14.211,5.661l2.43,1.779l-1.09-2.89
			c-1.29-4.59-1.12-8.94,1.88-10.59c2.79-1.541,5.79,2.5,7.99,7.709l0.149,0.371l-0.601-3.45c-0.75-6.561-0.3-12.351,1.261-12.99
			c1.229-0.521,4.029,1.83,6.97,5.49l0.91,1.21l-0.36-2.51c-0.529-5.351,0.4-9.42,3.851-9.94c3.46-0.5,6.5,1.61,8.931,5.08
			l0.17,0.28l0.24-1.03c1.38-5.14,3.858-8.64,7.399-8.479c1.54,0.069,3.188,2.289,4.72,5.71l0.07,0.169l0.22-0.699
			c1.479-4.44,3.83-7.18,7.221-6.641c6.16,0.971,9.26,8.131,10.05,16.73l0.051,0.699l0.409-0.569
			c1.971-2.601,3.771-4.22,4.729-3.979c1.131,0.279,1.881,3.399,2.03,7.52v0.05l0.101-0.22c3.58-7.09,7.989-11.9,12.119-9.62
			c4.051,2.24,5.11,7.319,4.311,13.21l-0.619,3.27l2.67-1.649c3.699-2.11,6.71-3.13,7.739-2.351c1.091,0.84,0.61,4.32-0.93,8.7
			l-0.521,1.341l1.89-1.181c5.601-3.17,10.521-4.12,12.74-0.6c2.359,3.739,1.29,8.37-1.681,12.95l-1.63,2.239l0.17-0.01
			c6.46,0,11.46,1.75,12.109,5.8c0.49,3.063-7.069,8.28-16.159,12.33l-1.63,0.68l0.479,0.19c4.43,2.021,7.72,5,7.039,8.431
			c-0.359,1.829-2.18,2.5-4.72,2.43c-0.641-0.01-1.311-0.08-2.021-0.18l-0.78-0.16l1.381,1.01c5.609,4.43,9.029,9.56,6.619,13.02
			c-0.449,0.641-1.439,0.98-2.84,1.07c-1.811,0.109-4.311-0.221-7.13-0.87l-1.261-0.34l1.29,1.5c3.729,4.689,5.32,9.08,2.391,11.64
			c-1.46,1.28-3.229,1.891-5.17,1.95c-3.41,0.11-7.37-1.45-11.261-3.96l-1.859-1.311l0.051,0.15c1.159,4.84,1.359,8.83,0.22,9.57
			c-0.21,0.14-0.5,0.19-0.859,0.14c-1.7-0.21-4.859-2.36-8.13-5.44l-0.37-0.359l0.569,1.76c1.33,5.1,0.899,9.6-2.92,11.771
			c-1.41,0.8-2.729,1.149-3.949,1.14c-1.851-0.029-3.48-0.91-4.9-2.39l-0.479-0.561l-0.021,0.22c-0.72,4.091-2.449,6.961-5.369,7.28
			c-1.431,0.16-3.29-1.649-5.19-4.579l-0.521-0.851l-0.189,1.76C198.15,244.625,196.35,247.556,193.08,247.556z M147.95,200.446
			l0.619-0.41l-0.1-0.12l-0.432,0.47L147.95,200.446z"/>
		
			<linearGradient id="SVGID_2_" gradientUnits="userSpaceOnUse" x1="24.7981" y1="232.2344" x2="78.7558" y2="358.2898" gradientTransform="matrix(1 0 0 1 0.0752 -219.9287)">
			<stop  offset="0" style="stop-color:#539B29"/>
			<stop  offset="1" style="stop-color:#386726"/>
		</linearGradient>
		<path fill="url(#SVGID_2_)" d="M49.64,169.696c-0.301-0.011-0.62-0.03-0.96-0.08c-4.709-0.56-6.801-5.24-7.311-11.14l-0.03-0.4
			l-0.04,0.08c-1.229,1.75-2.8,2.77-4.399,2.61c-3.029-0.28-5.141-4.551-4.949-9.75l0.069-0.94l-1.229,3.109
			c-1.601,2.94-3.96,4.66-6.021,4.11c-2.75-0.729-3.931-5.25-2.63-10.08l0.84-2.14l-0.431-0.15l-0.76-0.38l-0.37,1.34
			c-1.779,5.03-5.09,9.65-7.88,9.61c-0.38-0.02-0.74-0.1-1.08-0.28c-1.561-0.81-1.061-6.83,0.55-12.31l0.931-2.61l-1.58-0.97
			l-0.3-0.221l-0.721,1.82c-2.21,4.881-5.399,9.43-7.989,9.12c-0.351-0.05-0.689-0.17-1.011-0.399c-2.42-1.69-2.149-5.431-0.63-9.25
			l0.771-1.69L0,140.355V19.545l0.7,0.52l0.521,0.5l-0.301-1.88c-0.561-4.44-0.279-7.79,1.181-8.69
			c2.938-1.8,6.699,0.03,10.279,3.75l0.42,0.47l0.229-1.21c0.69-2.01,2.261-3.4,5.011-3.76c3.34-0.44,5.79,1.81,7.51,5.3l0.391,0.86
			l0.49-2.99c0.989-5.05,2.51-8.76,3.96-8.89c1.38-0.11,3.64,2.88,5.779,7.24l0.54,1.13l0.37-1.28c1.979-5.64,5.239-9.74,9.771-9.72
			c2.899,0.01,4.479,2.61,5.12,6.5l0.01,0.04l0.63-1.11c2.521-4,4.99-6.55,6.78-6.31c3.609,0.51,5.449,4.5,5.88,9.93l0.04,0.72
			l1.859-1.52c2.391-1.61,4.91-2.22,7.38-1.36c4.261,1.51,3.211,8.12,0.061,15.31l-0.21,0.48l0.45-0.38
			c1.55-0.91,3.109-1.14,4.29-0.45c0.87,0.51,1.419,1.45,1.64,2.65l0.091,1.17l1.851-1.55c6.479-4.95,13.51-7.44,18.04-3.71
			c3.319,2.72,1.229,7.83-3.171,13.21l-0.229,0.26l1.04-0.39c2.931-0.89,5.17-1.09,5.75-0.3c1.229,1.65-3.319,9.59-9.061,15.57
			l-2.079,1.86l0.289,0.4l1.57-1.56c4.34-3.94,9.779-7.15,11.438-4.38c1.25,2.08,0.141,4.73-2.021,7.16l-0.479,0.49l4.312-0.77
			c8.438-1.05,15.76-0.61,16.87,1.87c1.38,3.06-0.54,6.43-4.261,9.49l-0.899,0.68l0.47,0.15c2.051,1,3.32,2.84,3.351,5.82
			c0.03,3.21-2.109,5.4-5.351,6.81l-0.069,0.03l0.49,0.12c5.909,1.61,10.29,3.76,10.47,5.85c0.271,3-2.26,5.32-6.22,6.86
			l-1.062,0.37l1.159,0.86c1.61,1.61,2.229,3.77,1.29,6.59c-1.25,3.82-5.21,5.02-10.029,4.75l-1.311-0.13l1.689,0.93
			c2.051,1.479,3.181,3.19,2.58,4.89c-0.511,1.41-4.5,1.99-9.2,1.79l-2.01-0.15l4.67,2.29c5.181,3.16,8.13,7.28,4.58,11.81
			c-1.438,1.83-3.45,2.489-5.75,2.33c-1.25-0.091-2.59-0.42-3.971-0.931l0,0l0.891,1.181c3.25,4.55,5.101,8.6,4.029,10.18
			c-0.77,1.14-1.939,1.75-3.38,1.94c-2.199,0.27-5.029-0.47-8.04-1.9l-1.09-0.55l0.359,0.64c0.609,1.4,0.58,2.641-0.38,3.54
			c-0.8,0.761-1.779,1.14-2.88,1.21c-0.24,0.021-0.479,0.021-0.729,0.01c-2.899-0.14-6.46-2.129-9.521-4.779l-1.24-1.23l-0.83,0.62
			l0.461,0.54c2.56,3.76,2.909,7.99,0.77,9.45c-0.539,0.36-1.18,0.521-1.869,0.489c-0.53-0.02-1.091-0.149-1.66-0.369l-0.561-0.26
			l0.79,2.77c1.601,8.17,0.689,15.7-4.75,18.15c-0.72,0.319-1.439,0.459-2.141,0.399c-2.97-0.199-5.72-3.54-8.029-8.29l-0.55-1.22
			l-0.101,0.89c-0.53,3.04-1.36,5.15-2.33,5.32c-1.021,0.18-2.811-1.66-4.681-4.52l-0.89-1.461l-0.19,2.98
			C56.45,166.446,54.29,169.816,49.64,169.696z"/>
		
			<linearGradient id="SVGID_3_" gradientUnits="userSpaceOnUse" x1="6.3435" y1="368.2104" x2="54.6508" y2="462.3889" gradientTransform="matrix(1 0 0 1 0.0752 -219.9287)">
			<stop  offset="0" style="stop-color:#539B29"/>
			<stop  offset="1" style="stop-color:#386726"/>
		</linearGradient>
		<path fill="url(#SVGID_3_)" d="M14.18,268.316c-3.28,0-5.08-2.94-5.83-7.351l-0.181-1.75l-0.529,0.841
			c-1.899,2.939-3.75,4.739-5.181,4.579c-0.729-0.079-1.391-0.31-1.971-0.7L0,263.456v-117.15l2.351-2.9
			c1.17-0.94,2.521-1.57,4.061-1.813c3.39-0.529,5.729,2.2,7.229,6.641l0.199,0.699l0.08-0.169c1.521-3.421,3.181-5.631,4.721-5.7
			c3.54-0.17,6.021,3.34,7.398,8.459l0.239,1.041l0.16-0.271c2.439-3.479,5.479-5.6,8.931-5.08c3.449,0.511,4.39,4.591,3.851,9.931
			l-0.36,2.51l0.92-1.21c2.94-3.66,5.74-6.011,6.971-5.49c1.55,0.649,2.01,6.43,1.26,12.99l-0.6,3.46l0.14-0.37
			c2.21-5.22,5.21-9.261,8-7.72c2.99,1.66,3.16,6.01,1.881,10.59l-1.091,2.88l2.431-1.77c6.3-4.341,12.859-7.04,14.2-5.661
			c0.81,0.841,0.229,3.641-1.25,7.181l-1.87,3.75l0.55-0.21c7.57-2.57,14.87-2.67,17.899,2.19c2.431,3.899-2.01,8.409-8.689,12.239
			l-1.021,0.49l1.011,0.1c5.72,0.68,10.188,2.141,10.38,3.671c0.141,1.149-2.01,3.05-5.33,4.979l-3.811,1.91l1.36,0.59
			c7.859,3.59,13.689,8.91,12.47,14.979c-0.97,4.86-7.8,5.13-15.899,3.19l-3.71-1.149l1.081,1.169c1.34,1.65,1.859,3.28,1,4.511
			c-1.189,1.72-9.7-0.601-15.12-3.8l-1.149-0.83l1.899,1.45c7.649,6.149,14.55,15.079,7.2,19.339c-2.53,1.471-5.24,0.75-7.812-1.189
			l-1.101-0.97l0.771,3.59c1.189,6.34,1.17,11.47-0.74,12.61c-4.069,2.439-9.59-1.801-14.149-8.45l-1.359-2.18l-0.209,0.739
			c-0.46,1.141-1.2,1.97-2.181,2.29c-1.96,0.65-4.34-0.89-6.05-3.64l-0.28-0.61l-0.05,1.13c-0.511,8.92-2.551,17.141-5.261,17.66
			c-2.09,0.41-3.96-0.7-5.54-2.779l-1.449-2.351l-0.061,0.16C22.24,264.536,18.81,268.316,14.18,268.316z M59.31,221.196
			l-0.089-0.061l-0.432-0.47l-0.101,0.12L59.31,221.196z"/>
		
			<linearGradient id="SVGID_4_" gradientUnits="userSpaceOnUse" x1="97.5496" y1="333.0444" x2="146.4606" y2="426.6805" gradientTransform="matrix(1 0 0 1 0.0752 -219.9287)">
			<stop  offset="0" style="stop-color:#539B29"/>
			<stop  offset="1" style="stop-color:#386726"/>
		</linearGradient>
		<path fill="url(#SVGID_4_)" d="M121.24,225.675c-3.69,0.17-6.271-3.479-7.7-8.83l-0.2-0.859l-1.72,2.08
			c-2.07,2.06-4.45,3.17-7.081,2.779c-4.54-0.66-4.79-7.449-3.068-15.22l0.271-1.101l-0.851,1.041c-1.36,1.22-2.852,1.77-4.17,1.33
			c-1.301-0.431-2.182-1.761-2.541-3.551l-0.061-0.47l-1.87,2.31c-5.5,6.2-12.011,10.04-17.25,7.221
			c-4.181-2.26-2.511-8.6,1.55-15.48l0.15-0.26l-2.7,1.45c-2.84,1.27-5.061,1.76-5.75,1.06c-1.25-1.3,1.189-7.82,5.09-13.93
			l1.811-2.6l-0.609-0.66l-1.438,1.35c-2.729,2.221-5.58,3.84-7.49,3.689c-0.729-0.049-1.329-0.369-1.72-1
			c-1.5-2.379,0.101-5.579,2.851-8.369l0.569-0.53l-6.479-0.04c-8.63-0.51-15.84-2.29-16.511-4.97
			c-0.979-4.011,2.961-7.591,8.95-10.11l1.819-0.72l-1.89-1.011c-2.87-1.93-4.181-4.659-2.631-8.379
			c1.66-3.94,6.101-4.75,11.28-3.891l0.17,0.04l-0.221-0.2c-5.5-5.8-9.239-11.57-7.989-13.8c1.87-3.33,6.8-3.25,12.439-1.16
			l0.24,0.091l-0.65-1.41c-1.13-3.271-0.529-6.24,2.939-8.26c4.229-2.471,8.891,0.539,12.86,5.409l0.05,0.051l-1.09-3.53
			c-0.45-2.53-0.062-4.57,1.58-5.38c1.6-0.79,5.85,2.621,9.59,7.01l0.439,0.55l-2.021-5.891c-1.46-5.989-0.63-11.06,5.17-11.779
			c3.511-0.43,6.07,1.97,7.851,5.65l0.41,0.94l0.29-2.13c0.92-5.6,2.479-9.84,4.39-10.22c2.74-0.53,5.12,1.58,6.921,5.09l0.279,0.63
			l0.17-0.46c2.17-5.19,5.471-8.81,9.91-8.81c2.75,0,4.42,2.16,5.271,5.53l0.16,0.76l0.109-0.19c2.55-4.32,5.109-7.1,7.01-6.89
			c4.141,0.46,6.221,5.29,6.641,11.73l0.04,1.15l0.8-0.44c1.439-0.64,3.091-0.56,4.95,0.5c2.411,1.37,3.109,3.91,2.75,6.93
			l-0.188,0.98l2.699-2.7c4.66-4.4,8.971-7.14,10.94-6.16c2.88,1.42,3.539,5.05,2.689,9.563l-0.131,0.57l0.07-0.03
			c3.438-1.68,6.79-1.43,9.489,2.13c1.99,2.61,1.79,5.659,0.261,8.78l-1.221,2.08l1.511-0.44c6.58-1.71,11.989-2.05,13.311-0.14
			c2.43,3.479-0.101,8.39-4.979,13.02l-0.07,0.061l3.2,0.609c4.83,1.28,8.398,3.77,9.239,7.8c1.04,4.96-5.521,7.91-14.061,9.24
			l-1.01,0.141l1.271,0.63c2.279,1.319,3.601,2.979,3.149,4.779c-0.37,1.51-4.439,2.5-9.3,2.78l-1.86,0.061l0.979,0.77
			c6.729,5.739,11.37,13.03,8.091,18.23c-0.75,1.189-1.86,1.779-3.229,1.88c-1.79,0.14-4.021-0.561-6.438-1.801l-1.631-0.939
			l0.57,1.22c2.521,5.82,3.601,10.74,2.04,12.24c-1.131,1.08-2.57,1.479-4.2,1.34c-2.149-0.2-4.63-1.32-7.17-3.09l-1.04-0.761
			l0.021,0.07c0.331,3.21-0.819,5.78-4.41,6.9c-0.729,0.22-1.439,0.31-2.109,0.27c-2.568-0.149-4.818-2.039-6.7-4.829l-0.699-1.171
			l0.069,0.86c0.131,6.77-0.88,12.39-2.609,12.811c-1.521,0.369-4.721-2.94-7.88-7.741l-0.041-0.069l-0.229,1.83
			c-1.08,5.97-3.689,10.6-8.24,11.31c-0.359,0.051-0.71,0.07-1.04,0.04c-2.279-0.189-3.92-2.27-5.021-5.43l-0.109-0.33l-0.45,1.26
			C125.08,222.595,123.07,225.595,121.24,225.675z"/>
	</g>
</g>
<g>
	<g>
		<g>
			
				<linearGradient id="SVGID_5_" gradientUnits="userSpaceOnUse" x1="351.7517" y1="395.2173" x2="357.956" y2="447.9436" gradientTransform="matrix(1 0 0 1 0.0752 -219.9287)">
				<stop  offset="0" style="stop-color:#E4EED0"/>
				<stop  offset="1" style="stop-color:#76A999"/>
			</linearGradient>
			<path fill="url(#SVGID_5_)" d="M321.15,222.335c-1.01-0.13-1.27-0.74-1.08-1.569l0.12-0.331l-0.24,0.131
				c-0.87,0.47-1.608,0.72-2.028,0.63c-0.87-0.171-1.12-0.771-0.94-1.55l0.021-0.03l-0.199,0.08c-0.59,0.21-1.17,0.3-1.73,0.239
				c-0.38-0.05-0.75-0.16-1.1-0.359c-0.96-0.56-0.66-1.4,0.25-2.28l0.34-0.3l-0.15,0.05c-1.3,0.43-2.47,0.7-3.01,0.67
				c-0.109,0-0.2-0.02-0.25-0.05c-0.28-0.19,0.17-0.899,0.99-1.75l0.03-0.03l-0.69,0.171c-1.43,0.31-2.8,0.43-3.83,0.279
				c-0.59-0.09-1.06-0.27-1.39-0.569c-0.65-0.581,0.26-1.32,1.858-2.03l0.54-0.22l-0.42,0.009c-0.92,0-1.72-0.039-2.26-0.129
				c-0.42-0.07-0.69-0.171-0.771-0.301c-0.399-0.74,1.141-1.55,3.289-2.13l0.521-0.13h-0.26c-0.222-0.01-0.44-0.029-0.63-0.05
				c-0.78-0.09-1.28-0.28-1.211-0.63c0.131-0.66,1.421-1.07,2.971-1.271l0.17-0.02l-0.44-0.181c-2.38-1.109-4.18-2.359-3.738-2.899
				c0.59-0.72,2.29-0.84,4.26-0.59l0.05,0.02l-0.27-0.479c-0.472-0.961-0.352-1.851,0.729-2.44c1.03-0.56,2.44-0.19,3.84,0.61
				l0.472,0.3l-0.03-0.271c-0.05-0.869,0.14-1.52,0.55-1.629c0.4-0.101,1.22,0.199,2.14,0.729l0.66,0.42l0.13-0.63
				c0.32-1.11,1.142-2,2.591-2.25c1.489-0.25,2.381,0.8,2.779,2.24l0.011,0.05v-0.011c0.449-0.75,0.979-1.289,1.351-1.299
				c0.32,0,0.72,0.369,1.06,0.92l0.07,0.119l0.09-0.119c0.53-0.771,1.21-1.46,2-1.94l0.521-0.229l0.31-0.421
				c0.15-0.159,0.33-0.329,0.54-0.489l0.41-0.28l-1.58,0.35c-2.18,0.42-4.11,0.57-4.47,0.23c-0.38-0.36-0.142-0.82,0.489-1.3
				l0.101-0.08l-0.24,0.02c-1.21,0.02-2.09-0.279-2.27-1.09c-0.11-0.49,0.239-0.92,0.88-1.27l0.26-0.131l-0.439-0.05
				c-1.439-0.18-2.479-0.6-2.681-1.31c-0.13-0.49,0.471-0.891,1.48-1.19l0.18-0.05h-0.01c-1.46-0.28-2.44-0.62-2.46-0.971
				c-0.04-0.789,1.479-1.379,3.568-1.729l0.062-0.01l-0.07-0.05c-0.27-0.23-0.319-0.53-0.08-0.91c0.32-0.49,1.091-0.73,2.04-0.801
				h0.08l-0.74-0.27c-1.608-0.64-2.67-1.29-2.47-1.68c0.271-0.5,1.12-0.78,2.271-0.891l0.369-0.02l0,0
				c-0.521-0.47-0.529-1,0.271-1.59c0.66-0.48,1.57-0.62,2.59-0.551l0.15,0.021l-0.5-0.47c-0.74-0.75-1.07-1.37-0.722-1.67
				c0.642-0.521,1.841-0.59,3.24-0.35l0.09,0.01l-0.09-0.221c-0.22-0.74-0.01-1.41,0.851-1.899c0.971-0.54,2.359-0.2,3.739,0.56
				l0.301,0.18l0.011-0.1c0.068-0.18,0.22-0.33,0.479-0.42c0.431-0.17,1.53,0.2,2.642,0.77h0.02l-0.18-0.51
				c-0.32-1.33,0.05-2.56,1.6-3c0.83-0.229,1.57,0.061,2.19,0.631l0.108,0.109l0.091-0.359c0.261-0.83,0.671-1.44,1.21-1.54
				c1.069-0.21,2.04,0.27,2.771,1.089l0.09,0.11l0.19-0.21c0.398-0.35,1.01-0.54,1.89-0.489c1.07,0.05,1.601,0.56,1.79,1.27
				l0.03,0.17l0.438-0.53c0.79-0.89,1.62-1.51,2.07-1.47c0.44,0.03,0.84,0.67,1.07,1.55l0.05,0.23l0.24-0.211
				c1.148-0.959,2.54-1.579,3.93-1.399c0.89,0.12,1.12,0.66,0.939,1.399l-0.011,0.011l0.312-0.19c1.148-0.619,2.16-0.99,2.68-0.88
				c1.061,0.23,1.23,1.04,0.83,2.051l-0.05,0.14l0.71-0.21c0.89-0.2,1.72-0.21,2.39,0.05c1.16,0.439,0.2,1.609-1.46,2.8l-0.12,0.08
				l0.182-0.05c0.568-0.1,1.06-0.08,1.358,0.09c0.21,0.13,0.29,0.32,0.24,0.55l-0.08,0.22l0.71-0.209
				c2.46-0.65,4.851-0.82,5.88,0.04c0.74,0.63-0.39,1.479-2.25,2.3l-0.1,0.039l0.359-0.039c0.979-0.041,1.681,0.01,1.779,0.17
				c0.221,0.359-1.938,1.63-4.279,2.5l-0.811,0.26l0.05,0.08l0.62-0.221c1.71-0.549,3.69-0.93,3.93-0.35
				c0.182,0.44-0.409,0.87-1.31,1.23l-0.19,0.08l1.392,0.029c2.68,0.141,4.87,0.51,4.979,1.01c0.12,0.61-0.8,1.161-2.229,1.57
				l-0.33,0.091l0.12,0.04c0.529,0.27,0.739,0.659,0.46,1.199c-0.3,0.6-1.17,0.91-2.29,1.04h-0.03l0.141,0.04
				c1.649,0.53,2.779,1.1,2.641,1.49c-0.21,0.56-1.221,0.89-2.57,1.01l-0.359,0.03l0.271,0.2c0.34,0.359,0.32,0.779-0.25,1.26
				c-0.189,0.16-0.41,0.29-0.66,0.38l-0.21,0.069l0.28-0.049c0.26-0.011,0.51-0.011,0.76,0.029c0.851,0.11,1.15,0.57,1.08,1.221
				l-0.021,0.149l0.051-0.03c1.199-0.689,2.25-1.1,2.81-0.979c0.61,0.12,0.96,0.42,1.09,0.85l0.011,0.091h1.029l0.29,0.01
				l-0.229-0.09c-0.29-0.16-0.42-0.351-0.33-0.541c0.09-0.18,0.398-0.319,0.81-0.39l0.11-0.021l-0.54-0.239
				c-1.38-0.7-2.21-1.56-1.521-2.28c0.569-0.59,2.021-0.41,3.579,0.09h0.011l-0.029-0.029c-0.42-0.51-0.601-0.95-0.391-1.07
				c0.399-0.221,2.561,0.3,4.069,1.01l0.221,0.11l-0.551-0.35c-0.76-0.551-1.27-1.181-0.648-1.411
				c0.579-0.199,1.29,0.011,1.88,0.381l0.029,0.02l0.091-0.8c0.229-1.17,0.739-2.16,1.369-2.26c0.95-0.15,1.721,0.37,2.229,1.159
				l0.13,0.271l0.062-0.05c0.92-0.76,2.039-1.27,3.14-1.11c0.86,0.12,0.92,0.75,0.54,1.56l-0.09,0.171l0.359-0.14
				c1.42-0.531,2.649-0.83,3.069-0.641c0.84,0.38,0.391,1.28-0.689,2.21l-0.029,0.03l0.239-0.01c0.561-0.021,0.99,0.12,1.181,0.5
				c0.189,0.379-0.189,0.739-0.84,1.039l-0.25,0.11l0.199-0.01c1.91-0.011,3.49,0.16,3.62,0.5c0.149,0.38-0.311,0.76-1.12,1.08
				l-0.38,0.13l0.011,0.01c0.79,0.19,1.22,0.551,0.938,1.141c-0.229,0.479-0.898,0.739-1.79,0.859l-0.029,0.011l0.011-0.011
				c1.29,0.46,2.16,0.94,2.02,1.25c-0.21,0.49-1.159,0.74-2.42,0.79h-0.09l0.11,0.07c0.63,0.54,0.85,1.1,0.358,1.61
				c-0.39,0.399-1.18,0.449-2.148,0.279c-0.36-0.05-0.75-0.15-1.15-0.27l-0.13-0.04l0.021,0.04c0.12,0.22,0.08,0.41-0.159,0.55
				c-0.131,0.069-0.421,0.08-0.812,0.03c-0.409-0.061-0.93-0.181-1.46-0.33l-0.06-0.021l0.02,0.04l0.36,0.721l0.34-0.141
				c0.479-0.17,0.97-0.21,1.46-0.09c1.8,0.42,2.05,1.85,1.46,3.46l-0.061,0.13l0.181-0.09c0.85-0.4,1.569-0.62,1.83-0.54
				c0.319,0.101,0.25,0.7-0.101,1.47h-0.011l0.051-0.029c1.789-1.16,3.601-1.871,4.641-1.291c1.02,0.58,0.85,1.551,0.04,2.601
				l-0.5,0.569l0.96-0.189c1.34-0.24,2.359-0.311,2.6-0.12c0.261,0.19-0.229,0.81-1.13,1.551l-0.29,0.229l0.7-0.141
				c2.02-0.359,3.609-0.339,3.95,0.4c0.358,0.77-0.41,1.58-1.771,2.301l-0.71,0.34l0.05,0.01c1.98,0.25,3.341,0.779,3.142,1.54
				c-0.142,0.579-2.96,1.239-6.142,1.62l-0.55,0.06l0.12,0.06c1.16,0.54,1.88,1.221,1.34,1.82c-0.29,0.32-0.92,0.37-1.68,0.261
				c-0.2-0.03-0.391-0.07-0.61-0.12l-0.22-0.051l0.33,0.23c1.279,1.04,1.83,2.109,0.76,2.649c-0.2,0.101-0.54,0.12-0.97,0.091
				c-0.57-0.061-1.3-0.211-2.101-0.45l-0.351-0.11l0.25,0.33c0.68,1.01,0.74,1.87-0.399,2.23c-0.569,0.17-1.171,0.209-1.771,0.149
				c-1.05-0.12-2.11-0.56-3.061-1.18l-0.439-0.311v0.03c-0.12,0.94-0.44,1.67-0.86,1.761c-0.079,0.021-0.17,0.009-0.278-0.011
				c-0.5-0.109-1.25-0.62-1.961-1.32l-0.069-0.08v0.351c-0.09,0.979-0.66,1.79-2.03,2.04c-0.52,0.09-0.95,0.1-1.319,0.05
				c-0.561-0.08-0.979-0.31-1.261-0.63l-0.1-0.12l-0.03,0.03c-0.62,0.73-1.42,1.18-2.35,1.12c-0.45-0.021-0.841-0.43-1.142-1.04
				l-0.079-0.181l-0.229,0.32c-0.65,0.771-1.49,1.24-2.49,1.11c-1.41-0.181-2.1-1.01-2.26-2.09v-0.041l-0.67,0.371
				c-0.69,0.319-1.37,0.449-1.971,0.289c-0.779-0.199-0.601-1.789,0.109-3.439l0.09-0.21l-0.14,0.1c-0.8,0.44-1.67,0.62-2.21,0.431
				c-0.271-0.101-0.42-0.28-0.44-0.51v-0.141l-0.63,0.34c-2.04,1.04-4.13,1.6-5.14,0.99c-0.471-0.29,0.02-1.229,0.989-2.34
				l0.591-0.631l-0.431,0.131c-0.979,0.26-1.87,0.279-2.511-0.09l-0.229-0.2l-0.961,0.1c-0.109-0.01-0.221-0.02-0.319-0.04
				c-0.681-0.13-0.979-0.57-1.01-1.2v-0.06l-0.261,0.21c-0.971,0.75-1.87,1.22-2.439,1.17c-1.15-0.12-1.58-0.899-1.5-1.93
				l0.021-0.17l-0.721,0.31c-0.84,0.301-1.67,0.41-2.439,0.23c-1.33-0.301-0.75-1.561,0.54-2.91l0.181-0.19l-0.351,0.15
				c-0.54,0.18-1.051,0.21-1.41,0.08c-0.359-0.13-0.5-0.41-0.431-0.75l0.03-0.091l-0.8,0.351l-1.28,0.45l0.2,0.149
				c0.79,0.681,1.06,1.41,0.46,2.081c-0.771,0.84-2.891,0.619-5.17-0.061l-1.03-0.36l0.221,0.261c0.25,0.35,0.25,0.67-0.131,0.87
				c-0.529,0.259-2.909-0.5-4.26-1.301l-0.271-0.199l0.439,0.339c1.74,1.44,2.99,3.351,0.33,3.83c-0.92,0.17-1.68-0.069-2.271-0.52
				l-0.239-0.23l-0.11,0.69c-0.26,1.21-0.77,2.149-1.46,2.28c-1.479,0.29-2.76-0.71-3.5-2.1l-0.21-0.461l-0.13,0.12
				c-0.26,0.2-0.561,0.32-0.891,0.341c-0.67,0.039-1.25-0.341-1.5-0.91l-0.029-0.121l-0.12,0.2c-1.021,1.62-2.45,3.041-3.32,3.03
				c-0.68-0.01-1.14-0.28-1.42-0.73l-0.229-0.489l-0.03,0.03C323.98,221.965,322.56,222.525,321.15,222.335z M339.52,215.505
				l-0.03-0.02l-0.09-0.101l-0.04,0.011L339.52,215.505z M332.39,199.456l0.22-0.13l0.46-0.12l0.38-0.31l-0.55-0.221h-0.01
				l-0.271,0.2l-0.479,0.31l0.09,0.061L332.39,199.456z M368.301,196.786l0.21-0.14c0.238-0.13,0.47-0.24,0.72-0.33l0.54-0.17
				l-0.93,0.02c-0.342-0.01-0.69-0.061-1.062-0.12l-0.39-0.08l0.43,0.24c0.25,0.18,0.41,0.36,0.48,0.53L368.301,196.786
				L368.301,196.786z M369.77,196.146h0.04c0.15-0.021,0.3-0.041,0.438-0.07l0.19-0.051l-0.479,0.061L369.77,196.146z
				 M384.409,194.375l-0.028-0.109l-0.142-0.061l-0.358-0.181l0.22,0.131c0.1,0.07,0.2,0.14,0.29,0.21L384.409,194.375z"/>
		</g>
	</g>
	<g>
		<g>
			
				<linearGradient id="SVGID_6_" gradientUnits="userSpaceOnUse" x1="281.5383" y1="377.5815" x2="287.4903" y2="464.0515" gradientTransform="matrix(1 0 0 1 0.0752 -219.9287)">
				<stop  offset="0" style="stop-color:#E4EED0"/>
				<stop  offset="1" style="stop-color:#76A999"/>
			</linearGradient>
			<path fill="url(#SVGID_6_)" d="M285.55,158.855c-0.779-0.56-1.71-0.159-2.64,0.761l-0.341,0.39l0.021-0.29
				c0.04-1.02-0.09-1.77-0.46-1.97c-0.76-0.42-1.659-0.03-2.521,0.83l-0.04,0.04l-0.021-0.21c-0.09-0.59-0.329-1.08-0.771-1.4
				c-0.29-0.21-0.659-0.35-1.13-0.4c-1.29-0.119-2.149,0.871-2.689,2.32l-0.17,0.521l-0.03-0.15c-0.26-1.29-0.649-2.34-1.021-2.68
				c-0.069-0.07-0.149-0.11-0.229-0.11c-0.399-0.02-1.021,0.971-1.561,2.32l-0.02,0.05l-0.23-0.63c-0.5-1.26-1.18-2.3-2.01-2.85
				c-0.47-0.32-1-0.48-1.569-0.41c-1.131,0.109-1.49,1.43-1.398,3.18l0.05,0.58l-0.24-0.29c-0.56-0.64-1.1-1.14-1.56-1.42
				c-0.352-0.22-0.642-0.3-0.852-0.229c-1.171,0.42-1.221,2.219-0.641,4.239l0.17,0.471l-0.16-0.171
				c-0.149-0.14-0.3-0.27-0.449-0.38c-0.591-0.449-1.149-0.59-1.54-0.22c-0.75,0.7-0.471,1.97,0.25,3.2l0.09,0.13l-0.51-0.11
				c-2.859-0.569-5.551-0.61-5.95,0.21c-0.529,1.08,0.359,2.341,1.91,3.44l0.04,0.02l-0.771,0.261
				c-1.479,0.59-2.521,1.52-2.591,2.81c-0.069,1.22,1.271,1.83,3.148,2.01l0.65,0.04l-0.36,0.24c-1.109,0.779-1.81,1.529-1.688,1.92
				c0.109,0.359,1,0.63,2.25,0.75l0.91,0.061l-0.699,0.67c-1.19,1.279-1.79,2.67-1.21,3.89c0.601,1.239,2.471,0.84,4.53-0.25
				l0.061-0.03l-0.011,0.011c-0.659,1.009-1.01,1.88-0.79,2.14c0.189,0.22,0.899,0.14,1.811-0.15l0.189-0.07l-0.109,0.181
				c-0.63,1.09-1.061,2.2-1.181,3.19l0.04,0.569l-0.351,0.61c-0.1,0.25-0.199,0.53-0.26,0.82l-0.109,0.539l-0.53-1.39
				c-0.829-1.87-1.829-3.32-2.479-3.25c-0.689,0.08-1.109,0.68-1.34,1.569l-0.029,0.141l-0.131-0.189
				c-0.72-0.841-1.64-1.15-2.76-0.5c-0.681,0.39-0.99,1.02-1.061,1.799l0.021,0.291l-0.33-0.25c-1.13-0.8-2.3-1.11-3.3-0.58
				c-0.7,0.38-0.83,1.16-0.591,2.13l0.061,0.18l-0.021-0.01c-1.25-0.729-2.279-1.07-2.729-0.75c-1.01,0.72-0.811,2.3,0.051,4.05
				l0.029,0.05h-0.12c-0.449,0.04-0.859,0.28-1.18,0.811c-0.42,0.68-0.24,1.42,0.26,2.14l0.04,0.05l-0.8-0.239
				c-1.791-0.49-3.25-0.601-3.62-0.08c-0.46,0.649-0.29,1.49,0.3,2.359l0.2,0.28l0,0c-0.91,0.09-1.59,0.59-1.83,1.69
				c-0.2,0.899,0.189,1.649,0.92,2.27l0.11,0.08l-0.9,0.1c-1.39,0.211-2.38,0.58-2.521,1.101c-0.271,0.93,0.399,1.81,1.551,2.529
				l0.081,0.041l-0.331,0.149c-1.07,0.56-1.79,1.34-1.86,2.37c-0.079,1.18,1.211,1.79,3.021,2l0.399,0.05l-0.11,0.1
				c-0.189,0.211-0.271,0.45-0.229,0.721c0.061,0.449,1.2,0.85,2.591,1.06h0.029l-0.771,0.38c-1.851,1.03-3.17,2.44-2.75,3.91
				c0.221,0.78,1.04,1.011,2.13,0.891l0.211-0.03l-0.392,0.39c-0.891,0.97-1.381,1.82-1.188,2.28c0.398,0.93,1.609,1.13,3.1,0.85
				l0.171-0.04l-0.15,0.33c-0.17,0.591-0.029,1.19,0.561,1.74c0.729,0.68,1.7,0.56,2.689,0.01l0.24-0.14l-0.38,0.79
				c-0.631,1.38-0.891,2.529-0.561,2.8c0.3,0.271,1.351-0.069,2.601-0.74l0.319-0.18l-0.12,0.37c-0.479,1.68-0.399,3.21,0.689,3.98
				c0.689,0.479,1.511,0.129,2.32-0.69l0.01-0.011l-0.04,0.37c-0.079,1.391,0.08,2.41,0.551,2.66c0.949,0.49,2.069-0.16,3.09-1.38
				l0.13-0.16l0.189,0.68c0.301,0.781,0.801,1.36,1.53,1.57c1.279,0.36,2.149-1.399,2.609-3.649l0.03-0.15l0.04,0.17
				c0.22,0.48,0.56,0.801,0.949,0.83c0.301,0.03,0.59-0.1,0.84-0.35l0.229-0.271l0.17,0.68c0.721,2.291,1.971,4.07,3.69,3.951
				c1.25-0.091,1.609-1.671,1.479-3.69l-0.011-0.1l0.181,0.259c0.55,0.711,1.05,1.141,1.319,1.051c0.58-0.18,0.83-2.851,0.471-5.26
				l-0.181-0.8l0.141-0.041l0.109,0.641c0.37,1.68,1.13,3.37,1.99,2.979c0.649-0.279,0.84-1.1,0.729-2.05l-0.03-0.2l0.899,0.91
				c1.841,1.68,3.66,2.82,4.351,2.42c0.851-0.5,0.96-1.63,0.591-2.99l-0.101-0.319l0.142,0.05c0.659,0.109,1.27-0.12,1.79-0.83
				c0.539-0.75,0.409-1.64-0.131-2.529l-0.01-0.011l0.141,0.05c1.68,0.61,3.09,0.84,3.489,0.37c0.569-0.67,0.359-1.649-0.319-2.69
				l-0.19-0.27l0.421-0.01c0.659-0.11,1.17-0.521,1.43-1.36c0.08-0.27,0.101-0.55,0.061-0.81l-0.05-0.19l0.12,0.23
				c0.14,0.18,0.31,0.34,0.5,0.479c0.67,0.471,1.43,0.24,2.199-0.42l0.17-0.159l-0.01,0.06c-0.12,1.47,0.021,2.57,0.51,2.84
				c0.54,0.29,1.131,0.24,1.75-0.07l0.131-0.079l0.619,0.699l0.2,0.181l-0.25-0.063c-0.391-0.05-0.71,0.04-0.88,0.28
				c-0.171,0.239-0.16,0.569,0,0.93l0.05,0.09l-0.641-0.14c-1.729-0.28-3.319-0.03-3.8,1.13c-0.38,0.931,0.75,1.75,2.34,2.33v0.01
				l-0.061,0.01c-0.899,0.2-1.561,0.49-1.569,0.75c-0.03,0.471,1.95,1.44,3.79,1.8l0.271,0.041l-0.79-0.03
				c-1.16,0-2.261,0.25-2.16,0.87c0.101,0.59,0.801,0.869,1.631,0.93h0.05l-0.95,0.813c-1.319,1.27-2.239,2.55-1.979,3.069
				c0.399,0.78,1.521,0.82,2.83,0.41l0.42-0.16l-0.029,0.091c-0.38,1.34-0.32,2.569,0.55,3.169c0.689,0.471,1.511-0.09,2.29-1.109
				l0.16-0.22l0.04,0.37c0.22,1.47,0.609,2.579,1.109,2.689c1,0.21,1.84-0.95,2.34-2.56l0.021-0.051l0.131,0.18
				c0.319,0.4,0.771,0.561,1.35,0.32c0.601-0.229,0.811-0.82,0.79-1.56l-0.021-0.261l0.12,0.141c1.17,1.3,2.351,2.22,2.86,1.98
				c0.568-0.261,0.75-0.931,0.648-1.78l-0.06-0.391l0.01,0.011c0.73,0.359,1.44,0.3,2.021-0.45c0.448-0.601,0.368-1.3-0.03-2.03
				l-0.01-0.02v0.01c1.368,0.439,2.51,0.58,2.81,0.189c0.48-0.6,0.2-1.479-0.52-2.379l-0.052-0.061h0.17
				c1.052-0.08,1.892-0.46,2.222-1.271c0.26-0.64-0.17-1.229-0.972-1.729c-0.31-0.189-0.648-0.36-1.05-0.521l-0.13-0.06l0.062-0.01
				c0.34-0.131,0.56-0.33,0.59-0.631c0.01-0.17-0.16-0.369-0.472-0.579c-0.318-0.23-0.79-0.46-1.318-0.671l-0.063-0.029l0.07-0.01
				l1.12-0.45l0.04,0.36c0.09,0.489,0.33,0.859,0.78,1.079c1.64,0.811,3.59-0.37,5.238-2.29l0.13-0.16v0.211
				c0.03,0.949,0.19,1.649,0.46,1.75c0.32,0.119,1.021-0.5,1.762-1.461l0.01-0.009l-0.021,0.069c-0.34,2.3-0.1,4.2,1.271,4.35
				c1.35,0.15,2.46-0.879,3.27-2.419l0.4-0.891l0.36,0.85c0.528,1.13,1.08,1.88,1.448,1.87c0.41-0.01,0.882-0.93,1.262-2.24
				l0.1-0.409l0.25,0.61c0.8,1.699,1.812,2.76,2.94,2.299c1.198-0.5,1.729-1.779,1.8-3.38l-0.01-0.81l0.04,0.03
				c1.54,1.1,3.028,1.529,3.88,0.67c0.63-0.65-0.301-3.181-1.78-5.69l-0.271-0.439l0.149,0.039c1.39,0.271,2.69,0.11,3.101-0.819
				c0.229-0.5-0.091-0.97-0.711-1.38c-0.158-0.11-0.328-0.21-0.52-0.301l-0.21-0.1h0.5c2.1-0.109,3.78-0.76,3.79-1.99
				c0-0.229-0.18-0.479-0.5-0.739c-0.41-0.33-1.062-0.68-1.851-1l-0.359-0.13l0.56-0.141c1.69-0.49,2.82-1.27,2.551-2.38
				c-0.131-0.56-0.449-1-0.909-1.34c-0.79-0.61-2.012-0.899-3.36-0.97h-0.66l0.03-0.021c1.1-0.96,1.83-1.89,1.68-2.25
				c-0.028-0.08-0.09-0.13-0.188-0.18c-0.44-0.24-1.562-0.261-2.86-0.08l-0.15,0.03l0.44-0.34c1.18-0.99,1.84-2.13,1.29-3.301
				c-0.2-0.43-0.45-0.74-0.75-0.939c-0.45-0.311-0.98-0.37-1.57-0.26l-0.22,0.05l0.04-0.05c0.52-1.11,0.59-2.09-0.05-2.66
				c-0.32-0.28-1.063-0.16-2.01,0.22l-0.28,0.11l0.26-0.45c0.57-1.181,0.63-2.19-0.148-2.74c-1.11-0.78-2.57-0.46-4.03,0.45
				l-0.03,0.029l0.05-0.81c-0.028-0.76-0.29-1.34-0.858-1.6c-0.73-0.341-2.61,1.28-4.25,3.329l-0.2,0.261l0.04-0.19
				c0.06-0.949-0.25-1.72-0.83-1.899c-0.29-0.091-0.61-0.021-0.91,0.18l-0.18,0.141l0.05-0.75c0.03-2.36-0.57-4.32-1.96-4.421
				c-0.64-0.05-1.521,1.171-2.312,2.891l-0.42,0.99l-0.1-0.42c-0.29-0.9-0.811-1.531-1.67-1.61l-0.392,0.03l-0.479-0.74
				c-0.07-0.07-0.16-0.131-0.24-0.18c-0.58-0.341-1.319-0.121-2.12,0.449l-0.08,0.061l0.103-0.381c0.34-1.369,0.37-2.419-0.05-2.75
				c-0.86-0.669-2.09-0.229-3.34,0.801l-0.2,0.17l-0.05-0.78c-0.15-0.84-0.53-1.521-1.222-1.87c-1.199-0.609-2.409,0.971-3.319,3.12
				l-0.12,0.31l-0.029-0.39c-0.109-0.529-0.38-0.91-0.771-1.029c-0.38-0.11-0.819,0.05-1.21,0.419l-0.09,0.101l-0.061-0.87
				l-0.24-1.28l0.33-0.01c1.34-0.12,2.41-0.62,2.87-1.649c0.59-1.33-1-2.551-3.261-3.46l-1.08-0.36l0.46-0.09
				c0.601-0.17,1-0.471,1-0.91c0.011-0.61-2.42-1.5-4.26-1.65h-0.41l0.689-0.02c2.881-0.18,6.04-1.141,5-3.4
				c-0.35-0.779-1.119-1.069-2.069-1.05l-0.42,0.05l0.79-0.72c1.359-1.32,2.22-2.55,1.96-3.15c-0.561-1.27-2.59-1.19-4.811-0.37
				l-0.7,0.29l0.08-0.21c0.08-0.359,0.051-0.68-0.13-0.93c-0.359-0.479-1.2-0.52-2.069-0.15l-0.171,0.101l0.181-0.28
				c1.391-2.22,2.29-4.53,1.739-5.109c-0.43-0.451-1.069-0.5-1.8-0.281l-0.739,0.32l0.01-0.05
				C286.84,161.125,286.66,159.635,285.55,158.855z M288.35,177.755h-0.03l-0.18,0.04v-0.04H288.35z M263.87,188.116l-0.04,0.27
				l0.142,0.431l-0.15,0.539l-0.619-0.159l-0.011-0.011l0.09-0.369l0.091-0.62l0.13,0.01L263.87,188.116z M282.73,214.956
				l-0.04,0.27c-0.01,0.28-0.01,0.55,0.03,0.811l0.119,0.521l-0.55-0.65c-0.229-0.21-0.5-0.41-0.801-0.6l-0.329-0.19l0.562,0.06
				c0.369,0,0.688-0.06,0.938-0.18L282.73,214.956z M282.84,216.556l0.03,0.029c0.069,0.12,0.13,0.24,0.18,0.36l0.051,0.189
				l-0.21-0.39L282.84,216.556z M289.69,228.146l-0.16,0.09l-0.17-0.051l-0.449-0.069l0.3,0.03c0.149,0.01,0.3,0.01,0.439,0H289.69z
				"/>
		</g>
	</g>
</g>
</svg>
